<?xml version="1.0" encoding="UTF-8"?>
<!DOCTYPE svg PUBLIC "-//W3C//DTD SVG 1.1//EN" "http://www.w3.org/Graphics/SVG/1.1/DTD/svg11.dtd">
<svg version="1.1" xmlns="http://www.w3.org/2000/svg" xmlns:xlink="http://www.w3.org/1999/xlink" x="0" y="0" width="648.028" height="476.5" viewBox="0, 0, 648.028, 476.5">
  <g id="Layer_1">
    <path d="M9.5,184 L287.5,184" fill-opacity="0" stroke="#000000" stroke-width="5"/>
    <path d="M311.5,184 L589.5,184" fill-opacity="0" stroke="#000000" stroke-width="5"/>
    <path d="M287.5,184 C306.5,312 373.5,472 373.5,472" fill-opacity="0" stroke="#000000" stroke-width="3"/>
    <path d="M311.5,184 C330.5,312 397.5,472 397.5,472" fill-opacity="0" stroke="#000000" stroke-width="3"/>
    <g>
      <path d="M261.5,46 L158.168,163.296" fill-opacity="0" stroke="#A3A3A3" stroke-width="4"/>
      <path d="M158.168,163.296 L156.682,157.722 L151.822,170.499 L163.885,164.068 z" fill="#A3A3A3" fill-opacity="1" stroke="#A3A3A3" stroke-width="4" stroke-opacity="1"/>
    </g>
    <g>
      <path d="M523.5,354 L357.892,322.188" fill-opacity="0" stroke="#A3A3A3" stroke-width="4"/>
      <path d="M357.892,322.188 L361.94,318.078 L348.464,320.377 L360.129,327.506 z" fill="#A3A3A3" fill-opacity="1" stroke="#A3A3A3" stroke-width="4" stroke-opacity="1"/>
    </g>
    <g>
      <path d="M358.5,46 L453.201,162.984" fill-opacity="0" stroke="#A3A3A3" stroke-width="4"/>
      <path d="M453.201,162.984 L447.457,163.517 L459.242,170.446 L454.919,157.477 z" fill="#A3A3A3" fill-opacity="1" stroke="#A3A3A3" stroke-width="4" stroke-opacity="1"/>
    </g>
    <text transform="matrix(1, 0, 0, 1, 590.014, 350.5)">
      <tspan x="-58.014" y="10.5" font-family="Avenir-Medium" font-size="36" fill="#656565">Feeder</tspan>
    </text>
    <text transform="matrix(1, 0, 0, 1, 303.486, 29.25)">
      <tspan x="-140.058" y="6.75" font-family="Avenir-Medium" font-size="36" fill="#656565">Antenna sections</tspan>
    </text>
  </g>
</svg>
