<?xml version="1.0" encoding="UTF-8" standalone="no"?>
<!-- Created with Inkscape (http://www.inkscape.org/) -->

<svg
   xmlns:dc="http://purl.org/dc/elements/1.1/"
   xmlns:cc="http://creativecommons.org/ns#"
   xmlns:rdf="http://www.w3.org/1999/02/22-rdf-syntax-ns#"
   xmlns:svg="http://www.w3.org/2000/svg"
   xmlns="http://www.w3.org/2000/svg"
   xmlns:sodipodi="http://sodipodi.sourceforge.net/DTD/sodipodi-0.dtd"
   xmlns:inkscape="http://www.inkscape.org/namespaces/inkscape"
   id="svg8"
   version="1.1"
   viewBox="0 0 210 297"
   height="297mm"
   width="210mm"
   inkscape:version="0.92.4 5da689c313, 2019-01-14"
   sodipodi:docname="ejemplo-microondas.svg">
  <defs
     id="defs2" />
  <sodipodi:namedview
     id="base"
     pagecolor="#ffffff"
     bordercolor="#666666"
     borderopacity="1.0"
     inkscape:pageopacity="0.0"
     inkscape:pageshadow="2"
     inkscape:zoom="2.8"
     inkscape:cx="605.65009"
     inkscape:cy="524.07906"
     inkscape:document-units="mm"
     inkscape:current-layer="layer1"
     showgrid="false"
     inkscape:window-width="1920"
     inkscape:window-height="1016"
     inkscape:window-x="0"
     inkscape:window-y="27"
     inkscape:window-maximized="1" />
  <metadata
     id="metadata5">
    <rdf:RDF>
      <cc:Work
         rdf:about="">
        <dc:format>image/svg+xml</dc:format>
        <dc:type
           rdf:resource="http://purl.org/dc/dcmitype/StillImage" />
        <dc:title></dc:title>
      </cc:Work>
    </rdf:RDF>
  </metadata>
  <g
     inkscape:label="Capa 1"
     inkscape:groupmode="layer"
     id="layer1">
    <path
       id="path956"
       title="sin(x)"
       d="m 111.58503,122.67049 c 0.0208,-0.0208 0.0416,-0.0416 0.0625,-0.0624 0.0208,-0.0208 0.0417,-0.0415 0.0625,-0.0622 0.0208,-0.0207 0.0417,-0.0412 0.0625,-0.0617 0.0208,-0.0204 0.0416,-0.0408 0.0625,-0.0609 0.0208,-0.0202 0.0417,-0.0402 0.0625,-0.06 0.0208,-0.0198 0.0417,-0.0394 0.0625,-0.0588 0.0208,-0.0194 0.0416,-0.0385 0.0625,-0.0573 0.0208,-0.0188 0.0417,-0.0374 0.0625,-0.0556 0.0208,-0.0182 0.0417,-0.0362 0.0625,-0.0537 0.0208,-0.0176 0.0417,-0.0348 0.0625,-0.0516 0.0208,-0.0168 0.0417,-0.0333 0.0625,-0.0493 0.0208,-0.016 0.0417,-0.0317 0.0625,-0.0468 0.0208,-0.0152 0.0417,-0.0299 0.0625,-0.0441 0.0208,-0.0142 0.0417,-0.028 0.0625,-0.0413 0.0208,-0.0133 0.0417,-0.026 0.0625,-0.0382 0.0208,-0.0122 0.0417,-0.0239 0.0625,-0.0351 0.0208,-0.0111 0.0417,-0.0217 0.0625,-0.0317 0.0208,-0.01 0.0417,-0.0194 0.0625,-0.0283 0.0208,-0.009 0.0417,-0.0171 0.0625,-0.0247 0.0208,-0.008 0.0416,-0.0147 0.0625,-0.0211 0.0208,-0.006 0.0417,-0.0122 0.0625,-0.0174 0.0208,-0.005 0.0417,-0.01 0.0625,-0.0135 0.0208,-0.004 0.0416,-0.007 0.0625,-0.01 0.0208,-0.003 0.0417,-0.005 0.0625,-0.006 0.0208,-0.001 0.0417,-0.002 0.0625,-0.002 0.0208,3e-5 0.0416,7.2e-4 0.0625,0.002 0.0208,10e-4 0.0416,0.003 0.0625,0.006 0.0208,0.003 0.0416,0.006 0.0625,0.01 0.0208,0.004 0.0416,0.009 0.0625,0.0137 0.0208,0.005 0.0416,0.0111 0.0625,0.0175 0.0208,0.006 0.0416,0.0136 0.0625,0.0213 0.0208,0.008 0.0416,0.016 0.0625,0.0249 0.0208,0.009 0.0416,0.0184 0.0625,0.0285 0.0208,0.0101 0.0416,0.0207 0.0625,0.0319 0.0208,0.0112 0.0416,0.0229 0.0625,0.0352 0.0208,0.0123 0.0416,0.0251 0.0625,0.0384 0.0208,0.0133 0.0416,0.0271 0.0625,0.0414 0.0208,0.0143 0.0416,0.0291 0.0625,0.0443 0.0208,0.0152 0.0416,0.0309 0.0625,0.0469 0.0208,0.0161 0.0416,0.0326 0.0625,0.0495 0.0208,0.0169 0.0416,0.0341 0.0625,0.0517 0.0208,0.0176 0.0416,0.0356 0.0625,0.0538 0.0208,0.0183 0.0416,0.0369 0.0625,0.0557 0.0208,0.0189 0.0416,0.038 0.0625,0.0574 0.0208,0.0194 0.0416,0.039 0.0625,0.0588 0.0208,0.0198 0.0416,0.0398 0.0625,0.06 0.0208,0.0202 0.0416,0.0405 0.0625,0.061 0.0208,0.0205 0.0416,0.041 0.0625,0.0617 0.0208,0.0207 0.0416,0.0414 0.0625,0.0622 0.0208,0.0208 0.0416,0.0416 0.0625,0.0624 0.0208,0.0208 0.0416,0.0416 0.0625,0.0624 0.0208,0.0208 0.0416,0.0415 0.0625,0.0622 0.0208,0.0207 0.0416,0.0412 0.0625,0.0617 0.0208,0.0204 0.0416,0.0408 0.0625,0.0609 0.0208,0.0202 0.0416,0.0401 0.0625,0.0599 0.0208,0.0198 0.0416,0.0394 0.0625,0.0587 0.0208,0.0193 0.0416,0.0384 0.0625,0.0572 0.0208,0.0188 0.0416,0.0373 0.0625,0.0555 0.0208,0.0182 0.0416,0.0361 0.0625,0.0537 0.0208,0.0175 0.0416,0.0347 0.0625,0.0515 0.0208,0.0168 0.0417,0.0332 0.0625,0.0492 0.0208,0.016 0.0417,0.0316 0.0625,0.0467 0.0208,0.0151 0.0416,0.0298 0.0625,0.044 0.0208,0.0142 0.0417,0.0279 0.0625,0.0411 0.0208,0.0132 0.0417,0.0259 0.0625,0.0381 0.0208,0.0122 0.0416,0.0238 0.0625,0.0349 0.0208,0.0111 0.0417,0.0216 0.0625,0.0316 0.0208,0.01 0.0417,0.0193 0.0625,0.0281 0.0208,0.009 0.0416,0.017 0.0625,0.0246 0.0208,0.008 0.0417,0.0145 0.0625,0.0209 0.0208,0.006 0.0417,0.0121 0.0625,0.0172 0.0208,0.005 0.0416,0.01 0.0625,0.0134 0.0208,0.004 0.0417,0.007 0.0625,0.009 0.0208,0.003 0.0417,0.004 0.0625,0.006 0.0208,0.001 0.0416,0.002 0.0625,0.002 0.0208,-10e-5 0.0417,-8.6e-4 0.0625,-0.002 0.0208,-0.001 0.0417,-0.003 0.0625,-0.006 0.0208,-0.003 0.0416,-0.006 0.0625,-0.0101 0.0208,-0.004 0.0417,-0.009 0.0625,-0.0139 0.0208,-0.005 0.0417,-0.0112 0.0625,-0.0177 0.0208,-0.007 0.0416,-0.0137 0.0625,-0.0215 0.0208,-0.008 0.0417,-0.0161 0.0625,-0.0251 0.0208,-0.009 0.0417,-0.0185 0.0625,-0.0286 0.0208,-0.0101 0.0416,-0.0208 0.0625,-0.0321 0.0208,-0.0113 0.0417,-0.0231 0.0625,-0.0354 0.0208,-0.0123 0.0417,-0.0252 0.0625,-0.0385 0.0208,-0.0134 0.0416,-0.0272 0.0625,-0.0416 0.0208,-0.0143 0.0417,-0.0292 0.0625,-0.0444 0.0208,-0.0153 0.0417,-0.031 0.0625,-0.0471 0.0208,-0.0161 0.0416,-0.0327 0.0625,-0.0496 0.0208,-0.0169 0.0417,-0.0342 0.0625,-0.0519 0.0208,-0.0176 0.0417,-0.0356 0.0625,-0.0539 0.0208,-0.0183 0.0416,-0.0369 0.0625,-0.0558 0.0208,-0.0189 0.0417,-0.0381 0.0625,-0.0575 0.0208,-0.0194 0.0417,-0.0391 0.0625,-0.0589 0.0208,-0.0198 0.0416,-0.0399 0.0625,-0.0601 0.0208,-0.0202 0.0417,-0.0406 0.0625,-0.061 0.0208,-0.0205 0.0417,-0.0411 0.0625,-0.0618 0.0208,-0.0207 0.0416,-0.0414 0.0625,-0.0622 0.0208,-0.0208 0.0417,-0.0416 0.0625,-0.0624 0.0208,-0.0208 0.0417,-0.0416 0.0625,-0.0624 0.0208,-0.0208 0.0416,-0.0415 0.0625,-0.0621 0.0208,-0.0206 0.0417,-0.0412 0.0625,-0.0616 0.0208,-0.0204 0.0417,-0.0407 0.0625,-0.0609 0.0208,-0.0201 0.0416,-0.0401 0.0625,-0.0599 0.0208,-0.0198 0.0417,-0.0393 0.0625,-0.0586 0.0208,-0.0193 0.0417,-0.0384 0.0625,-0.0572 0.0208,-0.0188 0.0416,-0.0373 0.0625,-0.0555 0.0208,-0.0182 0.0417,-0.036 0.0625,-0.0535 0.0208,-0.0175 0.0417,-0.0347 0.0625,-0.0514 0.0208,-0.0168 0.0416,-0.0331 0.0625,-0.0491 0.0208,-0.016 0.0417,-0.0315 0.0625,-0.0466 0.0208,-0.0151 0.0417,-0.0297 0.0625,-0.0439 0.0208,-0.0141 0.0416,-0.0278 0.0625,-0.041 0.0208,-0.0131 0.0417,-0.0258 0.0625,-0.0379 0.0208,-0.0121 0.0417,-0.0237 0.0625,-0.0347 0.0208,-0.011 0.0416,-0.0215 0.0625,-0.0314 0.0208,-0.01 0.0417,-0.0192 0.0625,-0.028 0.0208,-0.009 0.0417,-0.0168 0.0625,-0.0244 0.0208,-0.008 0.0416,-0.0144 0.0625,-0.0207 0.0208,-0.006 0.0417,-0.0119 0.0625,-0.017 0.0208,-0.005 0.0417,-0.009 0.0625,-0.0132 0.0208,-0.004 0.0416,-0.007 0.0625,-0.009 0.0208,-0.002 0.0417,-0.004 0.0625,-0.005 0.0208,-0.001 0.0417,-0.002 0.0625,-0.001 0.0208,1.6e-4 0.0416,9.8e-4 0.0625,0.002 0.0208,10e-4 0.0417,0.004 0.0625,0.006 0.0208,0.003 0.0417,0.006 0.0625,0.0103 0.0208,0.004 0.0416,0.009 0.0625,0.0141 0.0208,0.005 0.0416,0.0113 0.0625,0.0179 0.0208,0.007 0.0416,0.0138 0.0625,0.0216 0.0208,0.008 0.0416,0.0163 0.0625,0.0253 0.0208,0.009 0.0416,0.0186 0.0625,0.0288 0.0208,0.0102 0.0416,0.0209 0.0625,0.0322 0.0208,0.0113 0.0416,0.0232 0.0625,0.0356 0.0208,0.0124 0.0416,0.0253 0.0625,0.0387 0.0208,0.0134 0.0416,0.0273 0.0625,0.0417 0.0208,0.0144 0.0416,0.0293 0.0625,0.0446 0.0208,0.0153 0.0416,0.031 0.0625,0.0472 0.0208,0.0162 0.0416,0.0327 0.0625,0.0497 0.0208,0.017 0.0416,0.0343 0.0625,0.052 0.0208,0.0177 0.0416,0.0357 0.0625,0.0541 0.0208,0.0183 0.0416,0.037 0.0625,0.0559 0.0208,0.0189 0.0416,0.0381 0.0625,0.0575 0.0208,0.0194 0.0416,0.0391 0.0625,0.059 0.0208,0.0199 0.0416,0.0399 0.0625,0.0601 0.0208,0.0202 0.0416,0.0406 0.0625,0.0611 0.0208,0.0205 0.0416,0.0411 0.0625,0.0618 0.0208,0.0207 0.0416,0.0414 0.0625,0.0622 0.0208,0.0208 0.0416,0.0416 0.0625,0.0624 0.0208,0.0208 0.0416,0.0416 0.0625,0.0624 0.0208,0.0208 0.0416,0.0415 0.0625,0.0621 0.0208,0.0206 0.0416,0.0412 0.0625,0.0616 0.0208,0.0204 0.0416,0.0407 0.0625,0.0608 0.0208,0.0201 0.0416,0.0401 0.0625,0.0598 0.0208,0.0197 0.0416,0.0393 0.0625,0.0585 0.0208,0.0193 0.0416,0.0383 0.0625,0.0571 0.0208,0.0187 0.0416,0.0372 0.0625,0.0554 0.0208,0.0182 0.0416,0.036 0.0625,0.0534 0.0208,0.0175 0.0416,0.0346 0.0625,0.0513 0.0208,0.0167 0.0416,0.0331 0.0625,0.049 0.0208,0.0159 0.0416,0.0314 0.0625,0.0464 0.0208,0.015 0.0416,0.0296 0.0625,0.0437 0.0208,0.0141 0.0417,0.0277 0.0625,0.0408 0.0208,0.0131 0.0417,0.0257 0.0625,0.0378 0.0208,0.0121 0.0416,0.0236 0.0625,0.0346 0.0208,0.011 0.0417,0.0214 0.0625,0.0312 0.0208,0.01 0.0417,0.0191 0.0625,0.0278 0.0208,0.009 0.0416,0.0167 0.0625,0.0242 0.0208,0.007 0.0417,0.0143 0.0625,0.0205 0.0208,0.006 0.0417,0.0118 0.0625,0.0168 0.0208,0.005 0.0417,0.009 0.0625,0.013 0.0208,0.004 0.0417,0.007 0.0625,0.009 0.0208,0.002 0.0417,0.004 0.0625,0.005 0.0208,0.001 0.0417,0.002 0.0625,0.001 0.0208,-2.3e-4 0.0417,-0.001 0.0625,-0.003 0.0208,-0.002 0.0417,-0.004 0.0625,-0.007 0.0208,-0.003 0.0417,-0.006 0.0625,-0.0105 0.0208,-0.004 0.0417,-0.009 0.0625,-0.0143 0.0208,-0.005 0.0417,-0.0114 0.0625,-0.0181 0.0208,-0.007 0.0417,-0.0139 0.0625,-0.0218 0.0208,-0.008 0.0416,-0.0164 0.0625,-0.0255 0.0208,-0.009 0.0417,-0.0188 0.0625,-0.029 0.0208,-0.0102 0.0417,-0.0211 0.0625,-0.0324 0.0208,-0.0114 0.0416,-0.0233 0.0625,-0.0357 0.0208,-0.0124 0.0417,-0.0254 0.0625,-0.0389 0.0208,-0.0135 0.0417,-0.0274 0.0625,-0.0419 0.0208,-0.0144 0.0416,-0.0293 0.0625,-0.0447 0.0208,-0.0153 0.0417,-0.0311 0.0625,-0.0473 0.0208,-0.0162 0.0417,-0.0328 0.0625,-0.0498 0.0208,-0.017 0.0416,-0.0344 0.0625,-0.0521 0.0208,-0.0177 0.0417,-0.0358 0.0625,-0.0541 0.0208,-0.0184 0.0417,-0.0371 0.0625,-0.056 0.0208,-0.0189 0.0416,-0.0382 0.0625,-0.0576 0.0208,-0.0195 0.0417,-0.0391 0.0625,-0.059 0.0208,-0.0199 0.0417,-0.04 0.0625,-0.0602 0.0208,-0.0202 0.0416,-0.0406 0.0625,-0.0611 0.0208,-0.0205 0.0417,-0.0411 0.0625,-0.0618 0.0208,-0.0207 0.0417,-0.0415 0.0625,-0.0623 0.0208,-0.0208 0.0416,-0.0416 0.0625,-0.0624 0.0208,-0.0208 0.0417,-0.0416 0.0625,-0.0624 0.0208,-0.0208 0.0417,-0.0415 0.0625,-0.0621 0.0208,-0.0206 0.0416,-0.0412 0.0625,-0.0616 0.0208,-0.0204 0.0417,-0.0407 0.0625,-0.0608 0.0208,-0.0201 0.0417,-0.04 0.0625,-0.0597 0.0208,-0.0197 0.0416,-0.0392 0.0625,-0.0585 0.0208,-0.0193 0.0417,-0.0383 0.0625,-0.057 0.0208,-0.0187 0.0417,-0.0372 0.0625,-0.0553 0.0208,-0.0181 0.0416,-0.0359 0.0625,-0.0533 0.0208,-0.0174 0.0417,-0.0345 0.0625,-0.0512 0.0208,-0.0167 0.0417,-0.033 0.0625,-0.0489 0.0208,-0.0159 0.0416,-0.0313 0.0625,-0.0463 0.0208,-0.015 0.0417,-0.0295 0.0625,-0.0436 0.0208,-0.014 0.0417,-0.0276 0.0625,-0.0407 0.0208,-0.0131 0.0416,-0.0256 0.0625,-0.0376 0.0208,-0.012 0.0417,-0.0235 0.0625,-0.0344 0.0208,-0.0109 0.0417,-0.0213 0.0625,-0.0311 0.0208,-0.01 0.0416,-0.019 0.0625,-0.0276 0.0208,-0.009 0.0417,-0.0166 0.0625,-0.024 0.0208,-0.007 0.0417,-0.0142 0.0625,-0.0204 0.0208,-0.006 0.0416,-0.0117 0.0625,-0.0166 0.0208,-0.005 0.0417,-0.009 0.0625,-0.0128 0.0208,-0.004 0.0417,-0.007 0.0625,-0.009 0.0208,-0.002 0.0416,-0.004 0.0625,-0.005 0.0208,-0.001 0.0417,-0.001 0.0625,-0.001 0.0208,2.9e-4 0.0417,0.001 0.0625,0.003 0.0208,0.002 0.0416,0.004 0.0625,0.007 0.0208,0.003 0.0417,0.006 0.0625,0.0106 0.0208,0.004 0.0417,0.009 0.0625,0.0145 0.0208,0.005 0.0416,0.0116 0.0625,0.0183 0.0208,0.007 0.0417,0.0141 0.0625,0.022 0.0208,0.008 0.0416,0.0165 0.0625,0.0256 0.0208,0.009 0.0416,0.0189 0.0625,0.0292 0.0208,0.0103 0.0416,0.0212 0.0625,0.0326 0.0208,0.0114 0.0416,0.0234 0.0625,0.0359 0.0208,0.0125 0.0416,0.0255 0.0625,0.039 0.0208,0.0135 0.0416,0.0275 0.0625,0.042 0.0208,0.0145 0.0416,0.0294 0.0625,0.0448 0.0208,0.0154 0.0416,0.0312 0.0625,0.0475 0.0208,0.0162 0.0416,0.0329 0.0625,0.0499 0.0208,0.017 0.0416,0.0344 0.0625,0.0522 0.0208,0.0178 0.0416,0.0358 0.0625,0.0542 0.0208,0.0184 0.0416,0.0371 0.0625,0.0561 0.0208,0.019 0.0416,0.0382 0.0625,0.0577 0.0208,0.0195 0.0416,0.0392 0.0625,0.0591 0.0208,0.0199 0.0416,0.04 0.0625,0.0602 0.0208,0.0202 0.0416,0.0406 0.0625,0.0612 0.0208,0.0205 0.0416,0.0411 0.0625,0.0618 0.0208,0.0207 0.0416,0.0415 0.0625,0.0623 0.0208,0.0208 0.0416,0.0416 0.0625,0.0624 0.0208,0.0208 0.0416,0.0416 0.0625,0.0624 0.0208,0.0208 0.0416,0.0415 0.0625,0.0621 0.0208,0.0206 0.0416,0.0411 0.0625,0.0615 0.0208,0.0204 0.0416,0.0406 0.0625,0.0607 0.0208,0.0201 0.0416,0.04 0.0625,0.0597 0.0208,0.0197 0.0416,0.0392 0.0625,0.0584 0.0208,0.0192 0.0416,0.0382 0.0625,0.0569 0.0208,0.0187 0.0416,0.0371 0.0625,0.0552 0.0208,0.0181 0.0416,0.0358 0.0625,0.0532 0.0208,0.0174 0.0416,0.0344 0.0625,0.0511 0.0208,0.0166 0.0416,0.0329 0.0625,0.0487 0.0208,0.0158 0.0416,0.0312 0.0625,0.0462 0.0208,0.0149 0.0416,0.0294 0.0625,0.0434 0.0208,0.014 0.0416,0.0275 0.0625,0.0405 0.0208,0.013 0.0416,0.0255 0.0625,0.0374 0.0208,0.012 0.0416,0.0234 0.0625,0.0342 0.0208,0.0109 0.0417,0.0212 0.0625,0.0309 0.0208,0.01 0.0417,0.0189 0.0625,0.0274 0.0208,0.009 0.0416,0.0165 0.0625,0.0238 0.0208,0.007 0.0417,0.0141 0.0625,0.0202 0.0208,0.006 0.0417,0.0116 0.0625,0.0164 0.0208,0.005 0.0416,0.009 0.0625,0.0126 0.0208,0.004 0.0417,0.006 0.0625,0.009 0.0208,0.002 0.0417,0.004 0.0625,0.005 0.0208,9.5e-4 0.0416,10e-4 0.0625,8.8e-4 0.0208,-3.6e-4 0.0417,-0.001 0.0625,-0.003 0.0208,-0.002 0.0417,-0.004 0.0625,-0.007 0.0208,-0.003 0.0416,-0.007 0.0625,-0.0108 0.0208,-0.004 0.0417,-0.009 0.0625,-0.0147 0.0208,-0.006 0.0417,-0.0117 0.0625,-0.0185 0.0208,-0.007 0.0416,-0.0142 0.0625,-0.0222 0.0208,-0.008 0.0417,-0.0166 0.0625,-0.0258 0.0208,-0.009 0.0417,-0.019 0.0625,-0.0293 0.0208,-0.0104 0.0416,-0.0213 0.0625,-0.0327 0.0208,-0.0115 0.0417,-0.0235 0.0625,-0.036 0.0208,-0.0125 0.0417,-0.0256 0.0625,-0.0392 0.0208,-0.0136 0.0416,-0.0276 0.0625,-0.0421 0.0208,-0.0145 0.0417,-0.0295 0.0625,-0.045 0.0208,-0.0154 0.0417,-0.0313 0.0625,-0.0476 0.0208,-0.0163 0.0416,-0.033 0.0625,-0.05 0.0208,-0.0171 0.0417,-0.0345 0.0625,-0.0523 0.0208,-0.0178 0.0417,-0.0359 0.0625,-0.0543 0.0208,-0.0184 0.0416,-0.0372 0.0625,-0.0562 0.0208,-0.019 0.0417,-0.0383 0.0625,-0.0578 0.0208,-0.0195 0.0417,-0.0392 0.0625,-0.0592 0.0208,-0.0199 0.0416,-0.04 0.0625,-0.0603 0.0208,-0.0203 0.0417,-0.0407 0.0625,-0.0612 0.0208,-0.0205 0.0417,-0.0412 0.0625,-0.0619 0.0208,-0.0207 0.0416,-0.0415 0.0625,-0.0623 0.0208,-0.0208 0.0417,-0.0416 0.0625,-0.0625 0.0208,-0.0208 0.0417,-0.0416 0.0625,-0.0624 0.0208,-0.0208 0.0416,-0.0414 0.0625,-0.0621 0.0208,-0.0206 0.0417,-0.0411 0.0625,-0.0615 0.0208,-0.0204 0.0417,-0.0406 0.0625,-0.0607 0.0208,-0.0201 0.0416,-0.04 0.0625,-0.0596 0.0208,-0.0197 0.0417,-0.0391 0.0625,-0.0584 0.0208,-0.0192 0.0417,-0.0382 0.0625,-0.0568 0.0208,-0.0187 0.0416,-0.0371 0.0625,-0.0551 0.0208,-0.018 0.0417,-0.0358 0.0625,-0.0531 0.0208,-0.0174 0.0417,-0.0344 0.0625,-0.051 0.0208,-0.0166 0.0416,-0.0328 0.0625,-0.0486 0.0208,-0.0158 0.0417,-0.0311 0.0625,-0.046 0.0208,-0.0149 0.0417,-0.0293 0.0625,-0.0433 0.0208,-0.0139 0.0416,-0.0274 0.0625,-0.0404 0.0208,-0.013 0.0417,-0.0254 0.0625,-0.0373 0.0208,-0.0119 0.0417,-0.0233 0.0625,-0.0341 0.0208,-0.0108 0.0416,-0.0211 0.0625,-0.0307 0.0208,-0.01 0.0417,-0.0187 0.0625,-0.0272 0.0208,-0.008 0.0417,-0.0164 0.0625,-0.0237 0.0208,-0.007 0.0416,-0.0139 0.0625,-0.02 0.0208,-0.006 0.0417,-0.0114 0.0625,-0.0162 0.0208,-0.005 0.0417,-0.009 0.0625,-0.0124 0.0208,-0.003 0.0416,-0.006 0.0625,-0.009 0.0208,-0.002 0.0417,-0.004 0.0625,-0.005 0.0208,-8.8e-4 0.0417,-0.001 0.0625,-6.8e-4 0.0208,4.2e-4 0.0416,0.002 0.0625,0.003 0.0208,0.002 0.0417,0.004 0.0625,0.007 0.0208,0.003 0.0417,0.007 0.0625,0.011 0.0208,0.004 0.0416,0.009 0.0625,0.0149 0.0208,0.006 0.0417,0.0118 0.0625,0.0187 0.0208,0.007 0.0417,0.0143 0.0625,0.0224 0.0208,0.008 0.0416,0.0167 0.0625,0.026 0.0208,0.009 0.0417,0.0191 0.0625,0.0295 0.0208,0.0104 0.0417,0.0214 0.0625,0.0329 0.0208,0.0115 0.0416,0.0236 0.0625,0.0362 0.0208,0.0126 0.0416,0.0257 0.0625,0.0393 0.0208,0.0136 0.0416,0.0277 0.0625,0.0423 0.0208,0.0146 0.0416,0.0296 0.0625,0.0451 0.0208,0.0155 0.0416,0.0314 0.0625,0.0477 0.0208,0.0163 0.0416,0.0331 0.0625,0.0502 0.0208,0.0171 0.0416,0.0346 0.0625,0.0524 0.0208,0.0178 0.0416,0.036 0.0625,0.0544 0.0208,0.0185 0.0416,0.0372 0.0625,0.0563 0.0208,0.019 0.0416,0.0383 0.0625,0.0579 0.0208,0.0195 0.0416,0.0393 0.0625,0.0592 0.0208,0.0199 0.0416,0.0401 0.0625,0.0603 0.0208,0.0203 0.0416,0.0407 0.0625,0.0612 0.0208,0.0205 0.0416,0.0412 0.0625,0.0619 0.0208,0.0207 0.0416,0.0415 0.0625,0.0623 0.0208,0.0208 0.0416,0.0416 0.0625,0.0625 0.0208,0.0208 0.0416,0.0416 0.0625,0.0624 0.0208,0.0207 0.0416,0.0414 0.0625,0.062 0.0208,0.0206 0.0416,0.0411 0.0625,0.0615 0.0208,0.0204 0.0416,0.0406 0.0625,0.0606 0.0208,0.02 0.0416,0.0399 0.0625,0.0596 0.0208,0.0196 0.0416,0.0391 0.0625,0.0583 0.0208,0.0192 0.0416,0.0381 0.0625,0.0568 0.0208,0.0186 0.0416,0.037 0.0625,0.055 0.0208,0.018 0.0416,0.0357 0.0625,0.053 0.0208,0.0173 0.0416,0.0343 0.0625,0.0508 0.0208,0.0166 0.0416,0.0327 0.0625,0.0485 0.0208,0.0157 0.0416,0.0311 0.0625,0.0459 0.0208,0.0148 0.0416,0.0293 0.0625,0.0431 0.0208,0.0139 0.0416,0.0273 0.0625,0.0402 0.0208,0.0129 0.0416,0.0253 0.0625,0.0371 0.0208,0.0119 0.0416,0.0232 0.0625,0.0339 0.0208,0.0108 0.0416,0.0209 0.0625,0.0305 0.0208,0.01 0.0416,0.0186 0.0625,0.0271 0.0208,0.008 0.0416,0.0163 0.0625,0.0235 0.0208,0.007 0.0417,0.0138 0.0625,0.0198 0.0208,0.006 0.0417,0.0113 0.0625,0.016 0.0208,0.005 0.0417,0.009 0.0625,0.0122 0.0208,0.003 0.0417,0.006 0.0625,0.008 0.0208,0.002 0.0417,0.004 0.0625,0.004 0.0208,8.2e-4 0.0417,9.8e-4 0.0625,4.9e-4 0.0208,-4.9e-4 0.0417,-0.002 0.0625,-0.003 0.0208,-0.002 0.0417,-0.004 0.0625,-0.007 0.0208,-0.003 0.0417,-0.007 0.0625,-0.0112 0.0208,-0.004 0.0417,-0.009 0.0625,-0.0151 0.0208,-0.006 0.0417,-0.0119 0.0625,-0.0188 0.0208,-0.007 0.0417,-0.0144 0.0625,-0.0226 0.0208,-0.008 0.0417,-0.0169 0.0625,-0.0262 0.0208,-0.009 0.0417,-0.0192 0.0625,-0.0297 0.0208,-0.0105 0.0417,-0.0215 0.0625,-0.0331 0.0208,-0.0116 0.0417,-0.0237 0.0625,-0.0363 0.0208,-0.0126 0.0417,-0.0258 0.0625,-0.0395 0.0208,-0.0137 0.0417,-0.0278 0.0625,-0.0424 0.0208,-0.0146 0.0417,-0.0297 0.0625,-0.0452 0.0208,-0.0155 0.0417,-0.0315 0.0625,-0.0478 0.0208,-0.0164 0.0417,-0.0331 0.0625,-0.0503 0.0208,-0.0171 0.0417,-0.0346 0.0625,-0.0525 0.0208,-0.0179 0.0417,-0.036 0.0625,-0.0545 0.0208,-0.0185 0.0417,-0.0373 0.0625,-0.0563 0.0208,-0.0191 0.0416,-0.0384 0.0625,-0.0579 0.0208,-0.0196 0.0417,-0.0393 0.0625,-0.0593 0.0208,-0.02 0.0417,-0.0401 0.0625,-0.0604 0.0208,-0.0203 0.0416,-0.0407 0.0625,-0.0613 0.0208,-0.0205 0.0417,-0.0412 0.0625,-0.0619 0.0208,-0.0207 0.0417,-0.0415 0.0625,-0.0623 0.0208,-0.0208 0.0416,-0.0417 0.0625,-0.0625 0.0208,-0.0208 0.0417,-0.0416 0.0625,-0.0624 0.0208,-0.0207 0.0417,-0.0414 0.0625,-0.062 0.0208,-0.0206 0.0416,-0.0411 0.0625,-0.0614 0.0208,-0.0203 0.0417,-0.0406 0.0625,-0.0606 0.0208,-0.02 0.0417,-0.0399 0.0625,-0.0595 0.0208,-0.0196 0.0416,-0.0391 0.0625,-0.0582 0.0208,-0.0191 0.0417,-0.0381 0.0625,-0.0567 0.0208,-0.0186 0.0417,-0.0369 0.0625,-0.0549 0.0208,-0.018 0.0416,-0.0356 0.0625,-0.0529 0.0208,-0.0173 0.0417,-0.0342 0.0625,-0.0507 0.0208,-0.0165 0.0417,-0.0327 0.0625,-0.0483 0.0208,-0.0157 0.0416,-0.031 0.0625,-0.0458 0.0208,-0.0148 0.0417,-0.0292 0.0625,-0.043 0.0208,-0.0138 0.0417,-0.0272 0.0625,-0.0401 0.0208,-0.0129 0.0416,-0.0252 0.0625,-0.037 0.0208,-0.0118 0.0417,-0.023 0.0625,-0.0337 0.0208,-0.0107 0.0417,-0.0208 0.0625,-0.0304 0.0208,-0.01 0.0416,-0.0185 0.0625,-0.0269 0.0208,-0.008 0.0417,-0.0161 0.0625,-0.0233 0.0208,-0.007 0.0417,-0.0137 0.0625,-0.0196 0.0208,-0.006 0.0416,-0.0112 0.0625,-0.0158 0.0208,-0.005 0.0417,-0.009 0.0625,-0.012 0.0208,-0.003 0.0417,-0.006 0.0625,-0.008 0.0208,-0.002 0.0416,-0.003 0.0625,-0.004 0.0208,-7.6e-4 0.0417,-8.5e-4 0.0625,-3e-4 0.0208,5.6e-4 0.0417,0.002 0.0625,0.004 0.0208,0.002 0.0416,0.004 0.0625,0.008 0.0208,0.003 0.0417,0.007 0.0625,0.0114 0.0208,0.004 0.0417,0.01 0.0625,0.0153 0.0208,0.006 0.0416,0.0121 0.0625,0.019 0.0208,0.007 0.0417,0.0145 0.0625,0.0227 0.0208,0.008 0.0417,0.017 0.0625,0.0264 0.0208,0.009 0.0416,0.0193 0.0625,0.0299 0.0208,0.0105 0.0417,0.0216 0.0625,0.0332 0.0208,0.0116 0.0417,0.0238 0.0625,0.0365 0.0208,0.0127 0.0416,0.0259 0.0625,0.0396 0.0208,0.0137 0.0417,0.0279 0.0625,0.0426 0.0208,0.0147 0.0416,0.0298 0.0625,0.0454 0.0208,0.0156 0.0416,0.0316 0.0625,0.048 0.0208,0.0164 0.0416,0.0332 0.0625,0.0504 0.0208,0.0172 0.0416,0.0347 0.0625,0.0526 0.0208,0.0179 0.0416,0.0361 0.0625,0.0546 0.0208,0.0185 0.0416,0.0373 0.0625,0.0564 0.0208,0.0191 0.0416,0.0384 0.0625,0.058 0.0208,0.0196 0.0416,0.0394 0.0625,0.0593 0.0208,0.02 0.0416,0.0401 0.0625,0.0604 0.0208,0.0203 0.0416,0.0408 0.0625,0.0613 0.0208,0.0206 0.0416,0.0412 0.0625,0.0619 0.0208,0.0207 0.0416,0.0415 0.0625,0.0623 0.0208,0.0208 0.0416,0.0417 0.0625,0.0625 0.0208,0.0208 0.0416,0.0416 0.0625,0.0624 0.0208,0.0207 0.0416,0.0414 0.0625,0.062 0.0208,0.0206 0.0416,0.041 0.0625,0.0614 0.0208,0.0203 0.0416,0.0405 0.0625,0.0605 0.0208,0.02 0.0416,0.0398 0.0625,0.0595 0.0208,0.0196 0.0416,0.039 0.0625,0.0581 0.0208,0.0191 0.0416,0.038 0.0625,0.0566 0.0208,0.0186 0.0416,0.0369 0.0625,0.0548 0.0208,0.0179 0.0416,0.0356 0.0625,0.0528 0.0208,0.0172 0.0416,0.0341 0.0625,0.0506 0.0208,0.0165 0.0416,0.0326 0.0625,0.0482 0.0208,0.0157 0.0416,0.0309 0.0625,0.0456 0.0208,0.0148 0.0416,0.0291 0.0625,0.0429 0.0208,0.0138 0.0416,0.0271 0.0625,0.0399 0.0208,0.0128 0.0416,0.0251 0.0625,0.0368 0.0208,0.0118 0.0416,0.023 0.0625,0.0336 0.0208,0.0106 0.0416,0.0207 0.0625,0.0302 0.0208,0.009 0.0416,0.0184 0.0625,0.0267 0.0208,0.008 0.0416,0.016 0.0625,0.0231 0.0208,0.007 0.0416,0.0136 0.0625,0.0194 0.0208,0.006 0.0416,0.0111 0.0625,0.0157 0.0208,0.005 0.0416,0.009 0.0625,0.0118 0.0208,0.003 0.0417,0.006 0.0625,0.008 0.0208,0.002 0.0417,0.003 0.0625,0.004 0.0208,6.8e-4 0.0417,7.2e-4 0.0625,9e-5 0.0208,-6.2e-4 0.0417,-0.002 0.0625,-0.004 0.0208,-0.002 0.0417,-0.005 0.0625,-0.008 0.0208,-0.003 0.0417,-0.007 0.0625,-0.0116 0.0208,-0.005 0.0417,-0.01 0.0625,-0.0155 0.0208,-0.006 0.0417,-0.0122 0.0625,-0.0192 0.0208,-0.007 0.0417,-0.0147 0.0625,-0.0229 0.0208,-0.008 0.0417,-0.0171 0.0625,-0.0265 0.0208,-0.009 0.0417,-0.0195 0.0625,-0.03 0.0208,-0.0106 0.0417,-0.0217 0.0625,-0.0334 0.0208,-0.0117 0.0417,-0.0239 0.0625,-0.0367 0.0208,-0.0127 0.0417,-0.026 0.0625,-0.0398 0.0208,-0.0138 0.0417,-0.028 0.0625,-0.0427 0.0208,-0.0147 0.0417,-0.0299 0.0625,-0.0455 0.0208,-0.0156 0.0417,-0.0317 0.0625,-0.0481 0.0208,-0.0165 0.0417,-0.0333 0.0625,-0.0505 0.0208,-0.0172 0.0417,-0.0348 0.0625,-0.0527 0.0208,-0.0179 0.0417,-0.0362 0.0625,-0.0547 0.0208,-0.0185 0.0417,-0.0374 0.0625,-0.0565 0.0208,-0.0191 0.0417,-0.0385 0.0625,-0.0581 0.0208,-0.0196 0.0417,-0.0394 0.0625,-0.0594 0.0208,-0.02 0.0417,-0.0402 0.0625,-0.0605 0.0208,-0.0203 0.0417,-0.0408 0.0625,-0.0614 0.0208,-0.0206 0.0417,-0.0412 0.0625,-0.062 0.0208,-0.0207 0.0417,-0.0415 0.0625,-0.0623 0.0208,-0.0208 0.0417,-0.0416 0.0625,-0.0625 0.0208,-0.0208 0.0417,-0.0416 0.0625,-0.0623 0.0208,-0.0207 0.0417,-0.0414 0.0625,-0.062 0.0208,-0.0206 0.0417,-0.041 0.0625,-0.0614 0.0208,-0.0203 0.0417,-0.0405 0.0625,-0.0605 0.0208,-0.02 0.0417,-0.0398 0.0625,-0.0594 0.0208,-0.0196 0.0417,-0.039 0.0625,-0.0581 0.0208,-0.0191 0.0417,-0.0379 0.0625,-0.0565 0.0208,-0.0186 0.0417,-0.0368 0.0625,-0.0547 0.0208,-0.0179 0.0417,-0.0355 0.0625,-0.0527 0.0208,-0.0172 0.0417,-0.0341 0.0625,-0.0505 0.0208,-0.0165 0.0417,-0.0325 0.0625,-0.0481 0.0208,-0.0156 0.0417,-0.0308 0.0625,-0.0455 0.0208,-0.0147 0.0417,-0.029 0.0625,-0.0427 0.0208,-0.0138 0.0417,-0.027 0.0625,-0.0398 0.0208,-0.0127 0.0417,-0.025 0.0625,-0.0367 0.0208,-0.0117 0.0417,-0.0228 0.0625,-0.0334 0.0208,-0.0106 0.0417,-0.0206 0.0625,-0.03 0.0208,-0.009 0.0417,-0.0183 0.0625,-0.0265 0.0208,-0.008 0.0417,-0.0159 0.0625,-0.0229 0.0208,-0.007 0.0417,-0.0135 0.0625,-0.0192 0.0208,-0.006 0.0417,-0.0109 0.0625,-0.0155 0.0208,-0.005 0.0417,-0.008 0.0625,-0.0116 0.0208,-0.003 0.0417,-0.006 0.0625,-0.008 0.0208,-0.002 0.0417,-0.003 0.0625,-0.004 0.0208,-6.2e-4 0.0416,-5.9e-4 0.0625,1e-4 0.0208,6.9e-4 0.0417,0.002 0.0625,0.004 0.0208,0.002 0.0417,0.005 0.0625,0.008 0.0208,0.003 0.0416,0.007 0.0625,0.0118 0.0208,0.005 0.0417,0.01 0.0625,0.0156 0.0208,0.006 0.0417,0.0123 0.0625,0.0194 0.0208,0.007 0.0416,0.0148 0.0625,0.0231 0.0208,0.008 0.0417,0.0172 0.0625,0.0267 0.0208,0.009 0.0417,0.0196 0.0625,0.0302 0.0208,0.0106 0.0416,0.0218 0.0625,0.0336 0.0208,0.0117 0.0417,0.024 0.0625,0.0368 0.0208,0.0128 0.0417,0.0261 0.0625,0.0399 0.0208,0.0138 0.0416,0.0281 0.0625,0.0429 0.0208,0.0148 0.0417,0.03 0.0625,0.0456 0.0208,0.0157 0.0417,0.0317 0.0625,0.0482 0.0208,0.0165 0.0416,0.0334 0.0625,0.0506 0.0208,0.0173 0.0416,0.0349 0.0625,0.0528 0.0208,0.0179 0.0416,0.0362 0.0625,0.0548 0.0208,0.0186 0.0416,0.0374 0.0625,0.0566 0.0208,0.0191 0.0416,0.0385 0.0625,0.0581 0.0208,0.0196 0.0416,0.0394 0.0625,0.0595 0.0208,0.02 0.0416,0.0402 0.0625,0.0605 0.0208,0.0203 0.0416,0.0408 0.0625,0.0614 0.0208,0.0206 0.0416,0.0413 0.0625,0.062 0.0208,0.0207 0.0416,0.0415 0.0625,0.0624 0.0208,0.0208 0.0416,0.0416 0.0625,0.0624 0.0208,0.0208 0.0416,0.0416 0.0625,0.0623 0.0208,0.0207 0.0416,0.0414 0.0625,0.0619 0.0208,0.0206 0.0416,0.041 0.0625,0.0613 0.0208,0.0203 0.0416,0.0405 0.0625,0.0604 0.0208,0.02 0.0416,0.0398 0.0625,0.0593 0.0208,0.0196 0.0416,0.0389 0.0625,0.058 0.0208,0.0191 0.0416,0.0379 0.0625,0.0564 0.0208,0.0185 0.0416,0.0367 0.0625,0.0546 0.0208,0.0179 0.0416,0.0354 0.0625,0.0526 0.0208,0.0172 0.0416,0.034 0.0625,0.0504 0.0208,0.0164 0.0416,0.0324 0.0625,0.048 0.0208,0.0156 0.0416,0.0307 0.0625,0.0454 0.0208,0.0147 0.0416,0.0289 0.0625,0.0426 0.0208,0.0137 0.0416,0.0269 0.0625,0.0396 0.0208,0.0127 0.0416,0.0249 0.0625,0.0365 0.0208,0.0116 0.0416,0.0227 0.0625,0.0332 0.0208,0.0105 0.0416,0.0205 0.0625,0.0299 0.0208,0.009 0.0416,0.0182 0.0625,0.0264 0.0208,0.008 0.0416,0.0158 0.0625,0.0227 0.0208,0.007 0.0416,0.0133 0.0625,0.019 0.0208,0.006 0.0416,0.0108 0.0625,0.0153 0.0208,0.004 0.0416,0.008 0.0625,0.0114 0.0208,0.003 0.0416,0.006 0.0625,0.008 0.0208,0.002 0.0416,0.003 0.0625,0.004 0.0208,5.6e-4 0.0416,4.6e-4 0.0625,-2.9e-4 0.0208,-7.5e-4 0.0417,-0.002 0.0625,-0.004 0.0208,-0.002 0.0417,-0.005 0.0625,-0.008 0.0208,-0.003 0.0417,-0.007 0.0625,-0.012 0.0208,-0.005 0.0417,-0.01 0.0625,-0.0158 0.0208,-0.006 0.0417,-0.0125 0.0625,-0.0196 0.0208,-0.007 0.0417,-0.0149 0.0625,-0.0233 0.0208,-0.008 0.0417,-0.0173 0.0625,-0.0269 0.0208,-0.01 0.0417,-0.0197 0.0625,-0.0304 0.0208,-0.0107 0.0417,-0.022 0.0625,-0.0337 0.0208,-0.0118 0.0417,-0.0241 0.0625,-0.037 0.0208,-0.0129 0.0417,-0.0262 0.0625,-0.0401 0.0208,-0.0139 0.0417,-0.0282 0.0625,-0.043 0.0208,-0.0148 0.0417,-0.0301 0.0625,-0.0458 0.0208,-0.0157 0.0417,-0.0318 0.0625,-0.0484 0.0208,-0.0165 0.0417,-0.0334 0.0625,-0.0507 0.0208,-0.0173 0.0417,-0.0349 0.0625,-0.0529 0.0208,-0.018 0.0417,-0.0363 0.0625,-0.0549 0.0208,-0.0186 0.0417,-0.0375 0.0625,-0.0567 0.0208,-0.0192 0.0417,-0.0386 0.0625,-0.0582 0.0208,-0.0196 0.0417,-0.0395 0.0625,-0.0595 0.0208,-0.02 0.0417,-0.0403 0.0625,-0.0606 0.0208,-0.0204 0.0417,-0.0408 0.0625,-0.0614 0.0208,-0.0206 0.0417,-0.0413 0.0625,-0.062 0.0208,-0.0207 0.0417,-0.0416 0.0625,-0.0624 0.0208,-0.0208 0.0417,-0.0417 0.0625,-0.0625 0.0208,-0.0208 0.0417,-0.0416 0.0625,-0.0623 0.0208,-0.0207 0.0417,-0.0414 0.0625,-0.0619 0.0208,-0.0205 0.0417,-0.041 0.0625,-0.0613 0.0208,-0.0203 0.0417,-0.0404 0.0625,-0.0604 0.0208,-0.0199 0.0417,-0.0397 0.0625,-0.0593 0.0208,-0.0195 0.0417,-0.0389 0.0625,-0.0579 0.0208,-0.0191 0.0417,-0.0378 0.0625,-0.0563 0.0208,-0.0185 0.0417,-0.0367 0.0625,-0.0545 0.0208,-0.0178 0.0417,-0.0354 0.0625,-0.0525 0.0208,-0.0171 0.0417,-0.0339 0.0625,-0.0503 0.0208,-0.0164 0.0417,-0.0323 0.0625,-0.0478 0.0208,-0.0155 0.0417,-0.0306 0.0625,-0.0452 0.0208,-0.0146 0.0417,-0.0288 0.0625,-0.0424 0.0208,-0.0137 0.0417,-0.0268 0.0625,-0.0395 0.0208,-0.0126 0.0417,-0.0248 0.0625,-0.0363 0.0208,-0.0116 0.0417,-0.0226 0.0625,-0.0331 0.0208,-0.0105 0.0417,-0.0204 0.0625,-0.0297 0.0208,-0.009 0.0417,-0.0181 0.0625,-0.0262 0.0208,-0.008 0.0417,-0.0157 0.0625,-0.0226 0.0208,-0.007 0.0417,-0.0132 0.0625,-0.0189 0.0208,-0.006 0.0417,-0.0107 0.0625,-0.0151 0.0208,-0.004 0.0417,-0.008 0.0625,-0.0112 0.0208,-0.003 0.0417,-0.006 0.0625,-0.007 0.0208,-0.002 0.0417,-0.003 0.0625,-0.003 0.0208,-4.9e-4 0.0417,-3.2e-4 0.0625,4.9e-4 0.0208,8.2e-4 0.0417,0.002 0.0625,0.004 0.0208,0.002 0.0417,0.005 0.0625,0.008 0.0208,0.003 0.0417,0.008 0.0625,0.0122 0.0208,0.005 0.0417,0.0101 0.0625,0.016 0.0208,0.006 0.0417,0.0126 0.0625,0.0198 0.0208,0.007 0.0417,0.015 0.0625,0.0235 0.0208,0.008 0.0417,0.0175 0.0625,0.0271 0.0208,0.01 0.0417,0.0198 0.0625,0.0306 0.0208,0.0108 0.0417,0.0221 0.0625,0.0339 0.0208,0.0118 0.0417,0.0242 0.0625,0.0371 0.0208,0.0129 0.0417,0.0263 0.0625,0.0402 0.0208,0.0139 0.0417,0.0283 0.0625,0.0431 0.0208,0.0148 0.0417,0.0302 0.0625,0.0459 0.0208,0.0157 0.0417,0.0319 0.0625,0.0485 0.0208,0.0166 0.0417,0.0335 0.0625,0.0508 0.0208,0.0173 0.0417,0.035 0.0625,0.053 0.0208,0.018 0.0417,0.0364 0.0625,0.055 0.0208,0.0186 0.0417,0.0376 0.0625,0.0568 0.0208,0.0192 0.0416,0.0386 0.0625,0.0583 0.0208,0.0197 0.0416,0.0395 0.0625,0.0596 0.0208,0.02 0.0416,0.0403 0.0625,0.0606 0.0208,0.0204 0.0416,0.0409 0.0625,0.0615 0.0208,0.0206 0.0416,0.0413 0.0625,0.062 0.0208,0.0208 0.0416,0.0416 0.0625,0.0624 0.0208,0.0208 0.0416,0.0417 0.0625,0.0625 0.0208,0.0208 0.0416,0.0416 0.0625,0.0623 0.0208,0.0207 0.0416,0.0414 0.0625,0.0619 0.0208,0.0205 0.0416,0.041 0.0625,0.0612 0.0208,0.0203 0.0416,0.0404 0.0625,0.0603 0.0208,0.0199 0.0416,0.0397 0.0625,0.0592 0.0208,0.0195 0.0416,0.0388 0.0625,0.0578 0.0208,0.019 0.0416,0.0378 0.0625,0.0563 0.0208,0.0185 0.0416,0.0366 0.0625,0.0544 0.0208,0.0178 0.0416,0.0353 0.0625,0.0524 0.0208,0.0171 0.0416,0.0338 0.0625,0.0502 0.0208,0.0163 0.0416,0.0322 0.0625,0.0477 0.0208,0.0155 0.0416,0.0305 0.0625,0.0451 0.0208,0.0146 0.0416,0.0287 0.0625,0.0423 0.0208,0.0136 0.0416,0.0267 0.0625,0.0393 0.0208,0.0126 0.0416,0.0247 0.0625,0.0362 0.0208,0.0115 0.0416,0.0225 0.0625,0.0329 0.0208,0.0104 0.0416,0.0203 0.0625,0.0295 0.0208,0.009 0.0416,0.0179 0.0625,0.026 0.0208,0.008 0.0416,0.0155 0.0625,0.0224 0.0208,0.007 0.0416,0.0131 0.0625,0.0187 0.0208,0.006 0.0416,0.0106 0.0625,0.0149 0.0208,0.004 0.0416,0.008 0.0625,0.011 0.0208,0.003 0.0416,0.005 0.0625,0.007 0.0208,0.002 0.0416,0.003 0.0625,0.003 0.0208,4.3e-4 0.0416,2e-4 0.0625,-6.9e-4 0.0208,-8.8e-4 0.0416,-0.002 0.0625,-0.005 0.0208,-0.002 0.0416,-0.005 0.0625,-0.009 0.0208,-0.003 0.0416,-0.008 0.0625,-0.0124 0.0208,-0.005 0.0417,-0.0102 0.0625,-0.0162 0.0208,-0.006 0.0417,-0.0127 0.0625,-0.02 0.0208,-0.007 0.0417,-0.0152 0.0625,-0.0237 0.0208,-0.008 0.0417,-0.0176 0.0625,-0.0272 0.0208,-0.01 0.0417,-0.0199 0.0625,-0.0307 0.0208,-0.0108 0.0417,-0.0222 0.0625,-0.0341 0.0208,-0.0119 0.0417,-0.0243 0.0625,-0.0373 0.0208,-0.013 0.0417,-0.0264 0.0625,-0.0404 0.0208,-0.014 0.0417,-0.0284 0.0625,-0.0433 0.0208,-0.0149 0.0417,-0.0303 0.0625,-0.046 0.0208,-0.0158 0.0417,-0.032 0.0625,-0.0486 0.0208,-0.0166 0.0417,-0.0336 0.0625,-0.051 0.0208,-0.0174 0.0417,-0.0351 0.0625,-0.0531 0.0208,-0.0181 0.0417,-0.0364 0.0625,-0.0551 0.0208,-0.0187 0.0417,-0.0376 0.0625,-0.0568 0.0208,-0.0192 0.0417,-0.0387 0.0625,-0.0584 0.0208,-0.0197 0.0417,-0.0396 0.0625,-0.0596 0.0208,-0.0201 0.0417,-0.0403 0.0625,-0.0607 0.0208,-0.0204 0.0417,-0.0409 0.0625,-0.0615 0.0208,-0.0206 0.0417,-0.0413 0.0625,-0.0621 0.0208,-0.0207 0.0417,-0.0416 0.0625,-0.0624 0.0208,-0.0208 0.0417,-0.0416 0.0625,-0.0624 0.0208,-0.0208 0.0417,-0.0416 0.0625,-0.0623 0.0208,-0.0207 0.0417,-0.0413 0.0625,-0.0619 0.0208,-0.0205 0.0417,-0.0409 0.0625,-0.0612 0.0208,-0.0203 0.0417,-0.0404 0.0625,-0.0603 0.0208,-0.0199 0.0417,-0.0396 0.0625,-0.0592 0.0208,-0.0195 0.0417,-0.0388 0.0625,-0.0578 0.0208,-0.019 0.0417,-0.0377 0.0625,-0.0562 0.0208,-0.0184 0.0417,-0.0366 0.0625,-0.0543 0.0208,-0.0178 0.0417,-0.0352 0.0625,-0.0523 0.0208,-0.0171 0.0417,-0.0338 0.0625,-0.05 0.0208,-0.0163 0.0417,-0.0322 0.0625,-0.0476 0.0208,-0.0154 0.0417,-0.0304 0.0625,-0.045 0.0208,-0.0145 0.0417,-0.0286 0.0625,-0.0421 0.0208,-0.0136 0.0417,-0.0266 0.0625,-0.0392 0.0208,-0.0125 0.0417,-0.0246 0.0625,-0.036 0.0208,-0.0115 0.0417,-0.0224 0.0625,-0.0327 0.0208,-0.0104 0.0417,-0.0201 0.0625,-0.0293 0.0208,-0.009 0.0417,-0.0178 0.0625,-0.0258 0.0208,-0.008 0.0417,-0.0154 0.0625,-0.0222 0.0208,-0.007 0.0417,-0.0129 0.0625,-0.0185 0.0208,-0.006 0.0417,-0.0104 0.0625,-0.0147 0.0208,-0.004 0.0417,-0.008 0.0625,-0.0108 0.0208,-0.003 0.0417,-0.005 0.0625,-0.007 0.0208,-0.002 0.0417,-0.003 0.0625,-0.003 0.0208,-3.6e-4 0.0417,-7e-5 0.0625,8.8e-4 0.0208,9.5e-4 0.0417,0.003 0.0625,0.005 0.0208,0.002 0.0417,0.005 0.0625,0.009 0.0208,0.004 0.0417,0.008 0.0625,0.0126 0.0208,0.005 0.0417,0.0103 0.0625,0.0164 0.0208,0.006 0.0417,0.0128 0.0625,0.0202 0.0208,0.007 0.0417,0.0153 0.0625,0.0238 0.0208,0.009 0.0417,0.0177 0.0625,0.0274 0.0208,0.01 0.0417,0.02 0.0625,0.0309 0.0208,0.0109 0.0417,0.0223 0.0625,0.0342 0.0208,0.012 0.0417,0.0245 0.0625,0.0375 0.0208,0.013 0.0417,0.0265 0.0625,0.0405 0.0208,0.014 0.0417,0.0285 0.0625,0.0434 0.0208,0.0149 0.0417,0.0303 0.0625,0.0462 0.0208,0.0158 0.0417,0.0321 0.0625,0.0487 0.0208,0.0166 0.0417,0.0337 0.0625,0.0511 0.0208,0.0174 0.0417,0.0352 0.0625,0.0532 0.0208,0.0181 0.0417,0.0365 0.0625,0.0552 0.0208,0.0187 0.0417,0.0377 0.0625,0.0569 0.0208,0.0192 0.0417,0.0387 0.0625,0.0584 0.0208,0.0197 0.0417,0.0396 0.0625,0.0597 0.0208,0.0201 0.0417,0.0403 0.0625,0.0607 0.0208,0.0204 0.0416,0.0409 0.0625,0.0615 0.0208,0.0206 0.0416,0.0413 0.0625,0.0621 0.0208,0.0208 0.0416,0.0416 0.0625,0.0624 0.0208,0.0208 0.0416,0.0416 0.0625,0.0624 0.0208,0.0208 0.0416,0.0416 0.0625,0.0623 0.0208,0.0207 0.0416,0.0413 0.0625,0.0618 0.0208,0.0205 0.0416,0.0409 0.0625,0.0612 0.0208,0.0203 0.0416,0.0403 0.0625,0.0602 0.0208,0.0199 0.0416,0.0396 0.0625,0.0591 0.0208,0.0195 0.0416,0.0387 0.0625,0.0577 0.0208,0.019 0.0416,0.0377 0.0625,0.0561 0.0208,0.0184 0.0416,0.0365 0.0625,0.0542 0.0208,0.0177 0.0416,0.0352 0.0625,0.0522 0.0208,0.017 0.0416,0.0337 0.0625,0.0499 0.0208,0.0162 0.0416,0.0321 0.0625,0.0475 0.0208,0.0154 0.0416,0.0303 0.0625,0.0448 0.0208,0.0145 0.0416,0.0285 0.0625,0.042 0.0208,0.0135 0.0416,0.0265 0.0625,0.039 0.0208,0.0125 0.0416,0.0245 0.0625,0.0359 0.0208,0.0114 0.0416,0.0223 0.0625,0.0326 0.0208,0.0103 0.0416,0.02 0.0625,0.0292 0.0208,0.009 0.0416,0.0177 0.0625,0.0256 0.0208,0.008 0.0416,0.0153 0.0625,0.022 0.0208,0.007 0.0416,0.0128 0.0625,0.0183 0.0208,0.005 0.0416,0.0103 0.0625,0.0145 0.0208,0.004 0.0416,0.008 0.0625,0.0106 0.0208,0.003 0.0416,0.005 0.0625,0.007 0.0208,0.002 0.0416,0.003 0.0625,0.003 0.0208,2.9e-4 0.0416,-7e-5 0.0625,-10e-4 0.0208,-0.001 0.0416,-0.003 0.0625,-0.005 0.0208,-0.002 0.0416,-0.005 0.0625,-0.009 0.0208,-0.004 0.0416,-0.008 0.0625,-0.0128 0.0208,-0.005 0.0416,-0.0104 0.0625,-0.0166 0.0208,-0.006 0.0416,-0.013 0.0625,-0.0203 0.0208,-0.007 0.0416,-0.0154 0.0625,-0.024 0.0208,-0.009 0.0417,-0.0178 0.0625,-0.0276 0.0208,-0.01 0.0417,-0.0201 0.0625,-0.0311 0.0208,-0.0109 0.0416,-0.0224 0.0625,-0.0344 0.0208,-0.012 0.0417,-0.0246 0.0625,-0.0376 0.0208,-0.013 0.0417,-0.0266 0.0625,-0.0407 0.0208,-0.014 0.0416,-0.0286 0.0625,-0.0436 0.0208,-0.015 0.0417,-0.0304 0.0625,-0.0463 0.0208,-0.0159 0.0417,-0.0322 0.0625,-0.0488 0.0208,-0.0167 0.0416,-0.0338 0.0625,-0.0512 0.0208,-0.0174 0.0417,-0.0352 0.0625,-0.0533 0.0208,-0.0181 0.0417,-0.0366 0.0625,-0.0553 0.0208,-0.0187 0.0416,-0.0377 0.0625,-0.057 0.0208,-0.0192 0.0417,-0.0388 0.0625,-0.0585 0.0208,-0.0197 0.0417,-0.0397 0.0625,-0.0598 0.0208,-0.0201 0.0416,-0.0404 0.0625,-0.0608 0.0208,-0.0204 0.0417,-0.0409 0.0625,-0.0616 0.0208,-0.0206 0.0417,-0.0413 0.0625,-0.0621 0.0208,-0.0208 0.0416,-0.0416 0.0625,-0.0624 0.0208,-0.0208 0.0417,-0.0417 0.0625,-0.0624 0.0208,-0.0208 0.0417,-0.0416 0.0625,-0.0623 0.0208,-0.0207 0.0416,-0.0413 0.0625,-0.0618 0.0208,-0.0205 0.0417,-0.0409 0.0625,-0.0611 0.0208,-0.0202 0.0417,-0.0403 0.0625,-0.0602 0.0208,-0.0199 0.0417,-0.0396 0.0625,-0.059 0.0208,-0.0195 0.0417,-0.0387 0.0625,-0.0576 0.0208,-0.019 0.0417,-0.0376 0.0625,-0.056 0.0208,-0.0184 0.0417,-0.0364 0.0625,-0.0541 0.0208,-0.0177 0.0417,-0.0351 0.0625,-0.0521 0.0208,-0.017 0.0417,-0.0336 0.0625,-0.0498 0.0208,-0.0162 0.0417,-0.032 0.0625,-0.0473 0.0208,-0.0153 0.0417,-0.0302 0.0625,-0.0447 0.0208,-0.0144 0.0417,-0.0284 0.0625,-0.0419 0.0208,-0.0135 0.0417,-0.0264 0.0625,-0.0388 0.0208,-0.0124 0.0417,-0.0243 0.0625,-0.0357 0.0208,-0.0114 0.0417,-0.0222 0.0625,-0.0324 0.0208,-0.0102 0.0417,-0.0199 0.0625,-0.029 0.0208,-0.009 0.0417,-0.0176 0.0625,-0.0255 0.0208,-0.008 0.0417,-0.0152 0.0625,-0.0218 0.0208,-0.007 0.0417,-0.0127 0.0625,-0.0181 0.0208,-0.005 0.0417,-0.0102 0.0625,-0.0143 0.0208,-0.004 0.0417,-0.008 0.0625,-0.0105 0.0208,-0.003 0.0417,-0.005 0.0625,-0.007 0.0208,-0.002 0.0417,-0.002 0.0625,-0.003 0.0208,-2.3e-4 0.0417,2e-4 0.0625,0.001 0.0208,0.001 0.0417,0.003 0.0625,0.005 0.0208,0.002 0.0417,0.005 0.0625,0.009 0.0208,0.004 0.0417,0.008 0.0625,0.013 0.0208,0.005 0.0417,0.0106 0.0625,0.0168 0.0208,0.006 0.0417,0.0131 0.0625,0.0205 0.0208,0.007 0.0417,0.0155 0.0625,0.0242 0.0208,0.009 0.0417,0.0179 0.0625,0.0278 0.0208,0.01 0.0417,0.0203 0.0625,0.0312 0.0208,0.011 0.0417,0.0225 0.0625,0.0346 0.0208,0.0121 0.0417,0.0247 0.0625,0.0378 0.0208,0.0131 0.0417,0.0267 0.0625,0.0408 0.0208,0.0141 0.0417,0.0287 0.0625,0.0437 0.0208,0.015 0.0417,0.0305 0.0625,0.0464 0.0208,0.0159 0.0417,0.0322 0.0625,0.049 0.0208,0.0167 0.0417,0.0338 0.0625,0.0513 0.0208,0.0175 0.0417,0.0353 0.0625,0.0534 0.0208,0.0181 0.0417,0.0366 0.0625,0.0554 0.0208,0.0187 0.0417,0.0378 0.0625,0.0571 0.0208,0.0193 0.0417,0.0388 0.0625,0.0586 0.0208,0.0197 0.0417,0.0397 0.0625,0.0598 0.0208,0.0201 0.0417,0.0404 0.0625,0.0608 0.0208,0.0204 0.0417,0.041 0.0625,0.0616 0.0208,0.0206 0.0417,0.0414 0.0625,0.0621 0.0208,0.0208 0.0417,0.0416 0.0625,0.0624 0.0208,0.0208 0.0416,0.0417 0.0625,0.0624 0.0208,0.0208 0.0416,0.0416 0.0625,0.0622 0.0208,0.0207 0.0416,0.0413 0.0625,0.0618 0.0208,0.0205 0.0416,0.0409 0.0625,0.0611 0.0208,0.0202 0.0416,0.0403 0.0625,0.0601 0.0208,0.0199 0.0416,0.0395 0.0625,0.0589 0.0208,0.0194 0.0416,0.0386 0.0625,0.0576 0.0208,0.0189 0.0416,0.0376 0.0625,0.0559 0.0208,0.0183 0.0416,0.0364 0.0625,0.054 0.0208,0.0177 0.0416,0.035 0.0625,0.052 0.0208,0.017 0.0416,0.0335 0.0625,0.0497 0.0208,0.0162 0.0416,0.0319 0.0625,0.0472 0.0208,0.0153 0.0416,0.0302 0.0625,0.0445 0.0208,0.0144 0.0416,0.0283 0.0625,0.0417 0.0208,0.0134 0.0416,0.0263 0.0625,0.0387 0.0208,0.0124 0.0416,0.0242 0.0625,0.0355 0.0208,0.0113 0.0416,0.0221 0.0625,0.0323 0.0208,0.0102 0.0416,0.0198 0.0625,0.0288 0.0208,0.009 0.0416,0.0175 0.0625,0.0253 0.0208,0.008 0.0416,0.0151 0.0625,0.0216 0.0208,0.007 0.0416,0.0126 0.0625,0.0179 0.0208,0.005 0.0416,0.0101 0.0625,0.0141 0.0208,0.004 0.0416,0.007 0.0625,0.0103 0.0208,0.003 0.0416,0.005 0.0625,0.006 0.0208,0.001 0.0416,0.002 0.0625,0.002 0.0208,1.6e-4 0.0416,-3.3e-4 0.0625,-0.001 0.0208,-0.001 0.0416,-0.003 0.0625,-0.005 0.0208,-0.002 0.0416,-0.006 0.0625,-0.009 0.0208,-0.004 0.0416,-0.008 0.0625,-0.0132 0.0208,-0.005 0.0416,-0.0107 0.0625,-0.017 0.0208,-0.006 0.0416,-0.0132 0.0625,-0.0207 0.0208,-0.008 0.0416,-0.0156 0.0625,-0.0244 0.0208,-0.009 0.0416,-0.0181 0.0625,-0.0279 0.0208,-0.01 0.0416,-0.0204 0.0625,-0.0314 0.0208,-0.011 0.0416,-0.0226 0.0625,-0.0347 0.0208,-0.0121 0.0416,-0.0248 0.0625,-0.0379 0.0208,-0.0132 0.0417,-0.0268 0.0625,-0.041 0.0208,-0.0141 0.0417,-0.0288 0.0625,-0.0438 0.0208,-0.0151 0.0416,-0.0306 0.0625,-0.0466 0.0208,-0.016 0.0417,-0.0323 0.0625,-0.0491 0.0208,-0.0168 0.0417,-0.0339 0.0625,-0.0514 0.0208,-0.0175 0.0416,-0.0354 0.0625,-0.0536 0.0208,-0.0182 0.0417,-0.0367 0.0625,-0.0555 0.0208,-0.0188 0.0417,-0.0378 0.0625,-0.0571 0.0208,-0.0193 0.0416,-0.0389 0.0625,-0.0586 0.0208,-0.0198 0.0417,-0.0397 0.0625,-0.0599 0.0208,-0.0201 0.0417,-0.0404 0.0625,-0.0609 0.0208,-0.0204 0.0416,-0.041 0.0625,-0.0616 0.0208,-0.0206 0.0417,-0.0414 0.0625,-0.0622 0.0208,-0.0208 0.0417,-0.0416 0.0625,-0.0624 0.0208,-0.0208 0.0416,-0.0416 0.0625,-0.0624 0.0208,-0.0208 0.0417,-0.0415 0.0625,-0.0622 0.0208,-0.0207 0.0417,-0.0413 0.0625,-0.0618 0.0208,-0.0205 0.0416,-0.0408 0.0625,-0.061 0.0208,-0.0202 0.0417,-0.0402 0.0625,-0.0601 0.0208,-0.0198 0.0417,-0.0395 0.0625,-0.0589 0.0208,-0.0194 0.0416,-0.0386 0.0625,-0.0575 0.0208,-0.0189 0.0417,-0.0375 0.0625,-0.0558 0.0208,-0.0183 0.0417,-0.0363 0.0625,-0.054 0.0208,-0.0176 0.0416,-0.0349 0.0625,-0.0519 0.0208,-0.0169 0.0417,-0.0335 0.0625,-0.0496 0.0208,-0.0161 0.0417,-0.0318 0.0625,-0.0471 0.0208,-0.0153 0.0416,-0.0301 0.0625,-0.0444 0.0208,-0.0143 0.0417,-0.0282 0.0625,-0.0416 0.0208,-0.0134 0.0417,-0.0262 0.0625,-0.0386 0.0208,-0.0123 0.0416,-0.0241 0.0625,-0.0354 0.0208,-0.0112 0.0417,-0.0219 0.0625,-0.0321 0.0208,-0.0101 0.0417,-0.0197 0.0625,-0.0286 0.0208,-0.009 0.0416,-0.0173 0.0625,-0.0251 0.0208,-0.008 0.0417,-0.0149 0.0625,-0.0215 0.0208,-0.007 0.0417,-0.0124 0.0625,-0.0177 0.0208,-0.005 0.0416,-0.01 0.0625,-0.0139 0.0208,-0.004 0.0417,-0.007 0.0625,-0.0101 0.0208,-0.003 0.0417,-0.005 0.0625,-0.006 0.0208,-10e-4 0.0416,-0.002 0.0625,-0.002 0.0208,-1e-4 0.0417,4.6e-4 0.0625,0.002 0.0208,0.001 0.0417,0.003 0.0625,0.006 0.0208,0.003 0.0416,0.006 0.0625,0.009 0.0208,0.004 0.0417,0.008 0.0625,0.0133 0.0208,0.005 0.0417,0.0108 0.0625,0.0172 0.0208,0.006 0.0416,0.0133 0.0625,0.0209 0.0208,0.008 0.0417,0.0158 0.0625,0.0246 0.0208,0.009 0.0417,0.0182 0.0625,0.0281 0.0208,0.01 0.0417,0.0205 0.0625,0.0316 0.0208,0.0111 0.0417,0.0227 0.0625,0.0349 0.0208,0.0122 0.0417,0.0249 0.0625,0.0381 0.0208,0.0132 0.0417,0.0269 0.0625,0.0411 0.0208,0.0142 0.0417,0.0289 0.0625,0.044 0.0208,0.0151 0.0417,0.0307 0.0625,0.0467 0.0208,0.016 0.0417,0.0324 0.0625,0.0492 0.0208,0.0168 0.0417,0.034 0.0625,0.0515 0.0208,0.0175 0.0417,0.0354 0.0625,0.0536 0.0208,0.0182 0.0417,0.0367 0.0625,0.0555 0.0208,0.0188 0.0417,0.0379 0.0625,0.0572 0.0208,0.0193 0.0417,0.0389 0.0625,0.0587 0.0208,0.0198 0.0417,0.0398 0.0625,0.0599 0.0208,0.0202 0.0417,0.0405 0.0625,0.0609 0.0208,0.0204 0.0417,0.041 0.0625,0.0617 0.0208,0.0206 0.0417,0.0414 0.0625,0.0622 0.0208,0.0208 0.0417,0.0416 0.0625,0.0624 0.0208,0.0208 0.0417,0.0416 0.0625,0.0624 0.0208,0.0208 0.0417,0.0415 0.0625,0.0622 0.0208,0.0207 0.0417,0.0413 0.0625,0.0617 0.0208,0.0205 0.0416,0.0408 0.0625,0.061 0.0208,0.0202 0.0416,0.0402 0.0625,0.06 0.0208,0.0198 0.0416,0.0394 0.0625,0.0588 0.0208,0.0194 0.0416,0.0385 0.0625,0.0574 0.0208,0.0189 0.0416,0.0375 0.0625,0.0557 0.0208,0.0183 0.0416,0.0362 0.0625,0.0538 0.0208,0.0176 0.0416,0.0349 0.0625,0.0517 0.0208,0.0169 0.0416,0.0334 0.0625,0.0495 0.0208,0.0161 0.0416,0.0317 0.0625,0.0469 0.0208,0.0152 0.0416,0.03 0.0625,0.0443 0.0208,0.0143 0.0416,0.0281 0.0625,0.0414 0.0208,0.0133 0.0416,0.0261 0.0625,0.0384 0.0208,0.0123 0.0416,0.024 0.0625,0.0352 0.0208,0.0112 0.0416,0.0218 0.0625,0.0319 0.0208,0.0101 0.0416,0.0196 0.0625,0.0285 0.0208,0.009 0.0416,0.0172 0.0625,0.0249 0.0208,0.008 0.0416,0.0148 0.0625,0.0213 0.0208,0.006 0.0416,0.0123 0.0625,0.0175 0.0208,0.005 0.0416,0.01 0.0625,0.0137 0.0208,0.004 0.0416,0.007 0.0625,0.01 0.0208,0.003 0.0416,0.005 0.0625,0.006 0.0208,0.001 0.0416,0.002 0.0625,0.002 0.0208,3e-5 0.0416,-5.9e-4 0.0625,-0.002 0.0208,-10e-4 0.0416,-0.003 0.0625,-0.006 0.0208,-0.003 0.0416,-0.006 0.0625,-0.01 0.0208,-0.004 0.0416,-0.008 0.0625,-0.0135 0.0208,-0.005 0.0416,-0.0109 0.0625,-0.0174 0.0208,-0.006 0.0416,-0.0134 0.0625,-0.0211 0.0208,-0.008 0.0416,-0.0159 0.0625,-0.0247 0.0208,-0.009 0.0416,-0.0183 0.0625,-0.0283 0.0208,-0.01 0.0416,-0.0206 0.0625,-0.0317 0.0208,-0.0111 0.0416,-0.0228 0.0625,-0.0351 0.0208,-0.0122 0.0416,-0.025 0.0625,-0.0382 0.0208,-0.0133 0.0416,-0.027 0.0625,-0.0413 0.0208,-0.0142 0.0416,-0.029 0.0625,-0.0441 0.0208,-0.0152 0.0417,-0.0308 0.0625,-0.0468 0.0208,-0.016 0.0416,-0.0325 0.0625,-0.0493 0.0208,-0.0168 0.0417,-0.0341 0.0625,-0.0516 0.0208,-0.0176 0.0417,-0.0355 0.0625,-0.0537 0.0208,-0.0182 0.0416,-0.0368 0.0625,-0.0556 0.0208,-0.0188 0.0417,-0.0379 0.0625,-0.0573 0.0208,-0.0194 0.0417,-0.039 0.0625,-0.0588 0.0208,-0.0198 0.0416,-0.0398 0.0625,-0.06 0.0208,-0.0202 0.0417,-0.0405 0.0625,-0.0609 0.0208,-0.0204 0.0417,-0.041 0.0625,-0.0617 0.0208,-0.0207 0.0416,-0.0414 0.0625,-0.0622 0.0208,-0.0208 0.0417,-0.0416 0.0625,-0.0624"
       style="fill:none;fill-opacity:1;stroke:#151515;stroke-width:0.265;stroke-miterlimit:4;stroke-dasharray:none;stroke-dashoffset:0;stroke-opacity:1"
       inkscape:connector-curvature="0" />
    <rect
       style="fill:none;fill-opacity:1;stroke:#151515;stroke-width:0.265;stroke-miterlimit:4;stroke-dasharray:none;stroke-dashoffset:0;stroke-opacity:1"
       id="rect961"
       width="4.2763124"
       height="4.2763124"
       x="107.17508"
       y="120.53103" />
    <rect
       style="fill:none;fill-opacity:1;stroke:#151515;stroke-width:0.265;stroke-miterlimit:4;stroke-dasharray:none;stroke-dashoffset:0;stroke-opacity:1"
       id="rect961-3"
       width="4.2763124"
       height="4.2763124"
       x="174.02254"
       y="120.53104" />
    <path
       id="path956-6"
       title="sin(x)"
       d="m 176.09388,124.80735 c 0.005,0.0304 0.009,0.0608 0.0141,0.0913 0.005,0.0304 0.009,0.0608 0.0139,0.0911 0.005,0.0304 0.009,0.0606 0.0136,0.0908 0.004,0.0301 0.009,0.0603 0.013,0.0904 0.004,0.03 0.008,0.06 0.0122,0.0897 0.004,0.0298 0.008,0.0595 0.0113,0.089 0.004,0.0295 0.007,0.0588 0.0101,0.0881 0.003,0.0291 0.006,0.0582 0.009,0.0869 0.003,0.0287 0.005,0.0575 0.007,0.0858 0.002,0.0284 0.004,0.0566 0.006,0.0844 0.002,0.0278 0.003,0.0556 0.004,0.083 9.5e-4,0.0274 0.002,0.0546 0.002,0.0814 3.5e-4,0.0268 2.3e-4,0.0535 -2.8e-4,0.0797 -4.2e-4,0.0262 -0.001,0.0522 -0.002,0.0778 -0.001,0.0256 -0.003,0.0509 -0.005,0.0759 -0.002,0.0249 -0.005,0.0497 -0.007,0.0739 -0.003,0.0241 -0.006,0.0483 -0.01,0.0718 -0.004,0.0235 -0.008,0.0468 -0.0126,0.0697 -0.005,0.0228 -0.01,0.0453 -0.0154,0.0674 -0.005,0.0222 -0.0116,0.0437 -0.0182,0.065 -0.007,0.0209 -0.0134,0.0424 -0.0211,0.0627 -0.008,0.0203 -0.0156,0.0407 -0.0244,0.0601 -0.009,0.0197 -0.0178,0.0386 -0.0267,0.0582 -0.009,0.019 -0.0195,0.0375 -0.0304,0.0553 -0.0109,0.0178 -0.021,0.0362 -0.0326,0.0533 -0.0118,0.017 -0.0235,0.0341 -0.0358,0.0508 -0.0124,0.0165 -0.0248,0.0329 -0.0397,0.0477 -0.014,0.0153 -0.0272,0.0311 -0.0429,0.0452 -0.0148,0.0146 -0.0303,0.0286 -0.0455,0.043 -0.0156,0.014 -0.0318,0.0273 -0.0484,0.0406 -0.0163,0.0133 -0.0338,0.0258 -0.0515,0.0381 -0.0179,0.012 -0.0356,0.0242 -0.0543,0.0358 -0.0187,0.0115 -0.0375,0.0227 -0.057,0.0336 -0.0195,0.0108 -0.0393,0.0213 -0.0597,0.0315 -0.0203,0.0101 -0.041,0.0199 -0.0623,0.0293 -0.0212,0.009 -0.0428,0.0185 -0.0648,0.0273 -0.0219,0.009 -0.0444,0.0172 -0.0671,0.0254 -0.0227,0.008 -0.0459,0.0159 -0.0694,0.0236 -0.0235,0.008 -0.0473,0.0148 -0.0715,0.0219 -0.0241,0.007 -0.0486,0.0137 -0.0735,0.0202 -0.0248,0.006 -0.0498,0.0128 -0.0753,0.0189 -0.0254,0.006 -0.051,0.0119 -0.0769,0.0175 -0.0259,0.006 -0.052,0.0111 -0.0783,0.0164 -0.0264,0.005 -0.053,0.0103 -0.0796,0.0153 -0.0268,0.005 -0.0537,0.01 -0.0807,0.0145 -0.0271,0.005 -0.0543,0.009 -0.0817,0.0136 -0.0274,0.004 -0.0548,0.009 -0.0825,0.013 -0.0276,0.004 -0.0553,0.008 -0.083,0.0125 -0.0278,0.004 -0.0555,0.008 -0.0835,0.0122 -0.0279,0.004 -0.0557,0.008 -0.0836,0.0121 -0.0279,0.004 -0.0557,0.008 -0.0836,0.012 -0.0279,0.004 -0.0556,0.008 -0.0835,0.0122 -0.0278,0.004 -0.0554,0.008 -0.0831,0.0125 -0.0275,0.004 -0.055,0.008 -0.0824,0.0131 -0.0274,0.004 -0.0546,0.009 -0.0816,0.0138 -0.0271,0.005 -0.054,0.009 -0.0807,0.0145 -0.0267,0.005 -0.0532,0.01 -0.0795,0.0154 -0.0264,0.005 -0.0524,0.0107 -0.0782,0.0164 -0.0258,0.006 -0.0514,0.0115 -0.0768,0.0177 -0.0253,0.006 -0.0503,0.0123 -0.0751,0.019 -0.0248,0.007 -0.0492,0.0134 -0.0733,0.0205 -0.0241,0.007 -0.0479,0.0144 -0.0713,0.0221 -0.0234,0.008 -0.0465,0.0155 -0.0692,0.0238 -0.0226,0.008 -0.045,0.0168 -0.0669,0.0256 -0.0219,0.009 -0.0435,0.018 -0.0646,0.0275 -0.0211,0.009 -0.0418,0.0193 -0.0621,0.0295 -0.0202,0.0102 -0.04,0.0208 -0.0594,0.0316 -0.0195,0.0108 -0.0382,0.0222 -0.0567,0.0339 -0.0187,0.0115 -0.0364,0.0236 -0.054,0.036 -0.0179,0.0121 -0.0345,0.0253 -0.0512,0.0384 -0.0163,0.0133 -0.0325,0.0268 -0.0482,0.0407 -0.0155,0.014 -0.0311,0.0279 -0.0453,0.0432 -0.0148,0.0146 -0.0289,0.03 -0.0421,0.0458 -0.014,0.0153 -0.0257,0.0324 -0.0397,0.0477 -0.0124,0.0165 -0.0241,0.0336 -0.0358,0.0508 -0.0118,0.017 -0.0228,0.0348 -0.0327,0.0533 -0.0109,0.0178 -0.021,0.0362 -0.0304,0.0553 -0.009,0.019 -0.0187,0.0381 -0.0267,0.0582 -0.009,0.0197 -0.0164,0.04 -0.0235,0.0607 -0.008,0.0203 -0.0142,0.0418 -0.0209,0.0629 -0.006,0.0215 -0.0124,0.0431 -0.0179,0.0654 -0.005,0.0222 -0.0105,0.0447 -0.0151,0.0676 -0.005,0.0228 -0.009,0.0462 -0.0124,0.0699 -0.004,0.0235 -0.007,0.0476 -0.01,0.0721 -0.002,0.0246 -0.005,0.0491 -0.007,0.0741 -0.002,0.025 -0.004,0.0505 -0.005,0.0761 -0.001,0.0258 -0.002,0.0516 -0.002,0.0781 -3.4e-4,0.0263 -2.9e-4,0.053 -3e-5,0.0798 4.3e-4,0.0269 0.001,0.0542 0.002,0.0816 10e-4,0.0274 0.002,0.0552 0.004,0.0831 0.002,0.0279 0.004,0.0562 0.006,0.0846 0.002,0.0284 0.005,0.0571 0.007,0.0859 0.003,0.0289 0.006,0.0578 0.009,0.0871 0.003,0.0292 0.007,0.0586 0.0103,0.0882 0.004,0.0296 0.007,0.0593 0.0113,0.089 0.004,0.0298 0.008,0.0597 0.0124,0.0899 0.004,0.03 0.009,0.0603 0.0131,0.0904 0.005,0.0302 0.009,0.0606 0.0136,0.0909 0.005,0.0304 0.009,0.0606 0.014,0.0912 0.005,0.0304 0.009,0.0608 0.0141,0.0913 0.005,0.0304 0.009,0.0609 0.0141,0.0913 0.005,0.0304 0.009,0.0607 0.0138,0.0911 0.005,0.0302 0.009,0.0607 0.0135,0.0907 0.004,0.0301 0.009,0.0603 0.013,0.0904 0.004,0.0299 0.008,0.0598 0.0122,0.0897 0.004,0.0298 0.008,0.0594 0.0111,0.0889 0.004,0.0294 0.007,0.0589 0.01,0.088 0.003,0.0291 0.006,0.0581 0.009,0.0869 0.003,0.0288 0.005,0.0574 0.007,0.0857 0.002,0.0283 0.004,0.0565 0.005,0.0843 0.002,0.0278 0.003,0.0554 0.004,0.0829 9.5e-4,0.0274 0.001,0.0545 0.002,0.0813 2.6e-4,0.0268 1.1e-4,0.0533 -4.5e-4,0.0795 -5.1e-4,0.0262 -0.001,0.052 -0.003,0.0777 -0.001,0.0255 -0.003,0.0508 -0.005,0.0757 -0.002,0.0248 -0.005,0.0495 -0.008,0.0737 -0.003,0.024 -0.006,0.0481 -0.0102,0.0716 -0.004,0.0235 -0.008,0.0467 -0.0128,0.0694 -0.005,0.0228 -0.0101,0.0452 -0.0156,0.0672 -0.005,0.0222 -0.0119,0.0436 -0.0185,0.0648 -0.007,0.0209 -0.0142,0.0419 -0.0215,0.0624 -0.008,0.0203 -0.0164,0.04 -0.0244,0.0601 -0.009,0.0197 -0.0179,0.0386 -0.0272,0.0577 -0.0101,0.0184 -0.0203,0.0369 -0.0312,0.0546 -0.0109,0.0178 -0.021,0.0361 -0.0335,0.0527 -0.0118,0.017 -0.0235,0.0341 -0.0358,0.0508 -0.0124,0.0165 -0.0257,0.0324 -0.0397,0.0477 -0.014,0.0153 -0.0273,0.0312 -0.0428,0.0451 -0.0148,0.0146 -0.0303,0.0286 -0.0458,0.0427 -0.0156,0.014 -0.032,0.0272 -0.0488,0.0404 -0.0171,0.0127 -0.0339,0.0256 -0.0517,0.038 -0.0179,0.0121 -0.0359,0.0241 -0.0546,0.0356 -0.0187,0.0115 -0.0377,0.0226 -0.0573,0.0335 -0.0196,0.0108 -0.0395,0.0212 -0.0599,0.0313 -0.0204,0.0101 -0.0413,0.0196 -0.0626,0.0291 -0.0213,0.009 -0.043,0.0183 -0.065,0.0271 -0.022,0.009 -0.0446,0.0171 -0.0674,0.0252 -0.0228,0.008 -0.0461,0.0158 -0.0696,0.0234 -0.0236,0.007 -0.0474,0.0147 -0.0717,0.0217 -0.0243,0.007 -0.0487,0.0136 -0.0737,0.0201 -0.0249,0.006 -0.05,0.0126 -0.0755,0.0186 -0.0254,0.006 -0.0511,0.0118 -0.0771,0.0173 -0.0259,0.006 -0.0521,0.011 -0.0785,0.0163 -0.0264,0.005 -0.0529,0.0103 -0.0797,0.0153 -0.0268,0.005 -0.0537,0.01 -0.0809,0.0142 -0.0272,0.005 -0.0543,0.009 -0.0817,0.0136 -0.0274,0.004 -0.0549,0.009 -0.0826,0.0129 -0.0276,0.004 -0.0553,0.008 -0.0831,0.0125 -0.0278,0.004 -0.0555,0.008 -0.0835,0.0122 -0.0279,0.004 -0.0557,0.008 -0.0836,0.0121 -0.0279,0.004 -0.0557,0.008 -0.0836,0.0121 -0.0279,0.004 -0.0556,0.008 -0.0834,0.0123 -0.0277,0.004 -0.0554,0.008 -0.083,0.0126 -0.0276,0.004 -0.0549,0.009 -0.0823,0.0132 -0.0273,0.004 -0.0546,0.009 -0.0816,0.0138 -0.027,0.005 -0.054,0.009 -0.0805,0.0146 -0.0267,0.005 -0.0532,0.0101 -0.0794,0.0155 -0.0263,0.005 -0.0521,0.0108 -0.0781,0.0165 -0.0258,0.006 -0.0513,0.0115 -0.0765,0.0178 -0.0253,0.006 -0.0502,0.0124 -0.075,0.0191 -0.0247,0.007 -0.0491,0.0134 -0.0732,0.0206 -0.0241,0.007 -0.0477,0.0145 -0.071,0.0223 -0.0233,0.008 -0.0463,0.0156 -0.0689,0.024 -0.0225,0.008 -0.0449,0.0169 -0.0667,0.0258 -0.0218,0.009 -0.0433,0.0182 -0.0644,0.0277 -0.021,0.01 -0.0416,0.0195 -0.0619,0.0297 -0.0202,0.0102 -0.0399,0.021 -0.0591,0.0319 -0.0195,0.0108 -0.0381,0.0224 -0.0564,0.034 -0.0187,0.0115 -0.0362,0.0239 -0.0538,0.0363 -0.0171,0.0127 -0.0343,0.0254 -0.0509,0.0387 -0.0163,0.0133 -0.0325,0.027 -0.0479,0.0411 -0.0156,0.014 -0.0304,0.0287 -0.045,0.0434 -0.0148,0.0146 -0.0289,0.0299 -0.042,0.0458 -0.0132,0.0159 -0.0257,0.0324 -0.039,0.0483 -0.0124,0.0165 -0.0241,0.0336 -0.0353,0.0512 -0.0118,0.017 -0.0218,0.0355 -0.0319,0.0539 -0.0101,0.0184 -0.0203,0.0369 -0.0288,0.0565 -0.009,0.019 -0.0187,0.0381 -0.0267,0.0583 -0.009,0.0197 -0.0164,0.04 -0.0236,0.0608 -0.008,0.0203 -0.0142,0.0418 -0.0206,0.0631 -0.006,0.0215 -0.0123,0.0433 -0.0177,0.0655 -0.005,0.0222 -0.0102,0.0448 -0.0148,0.0679 -0.005,0.0228 -0.008,0.0464 -0.012,0.0701 -0.004,0.0235 -0.007,0.0478 -0.009,0.0722 -0.002,0.0247 -0.005,0.0492 -0.007,0.0744 -0.002,0.0251 -0.003,0.0506 -0.004,0.0763 -10e-4,0.0258 -0.002,0.0519 -0.002,0.0782 -2.6e-4,0.0263 -1.6e-4,0.053 2.1e-4,0.08 4.3e-4,0.0269 0.001,0.0543 0.002,0.0817 0.001,0.0275 0.003,0.0553 0.004,0.0833 0.002,0.028 0.004,0.0562 0.006,0.0847 0.002,0.0284 0.005,0.0572 0.008,0.086 0.003,0.0289 0.006,0.0581 0.009,0.0872 0.003,0.0292 0.007,0.0586 0.0103,0.0882 0.004,0.0296 0.007,0.0593 0.0115,0.0892 0.004,0.0298 0.008,0.0598 0.0124,0.0898 0.004,0.03 0.009,0.0601 0.0131,0.0904 0.005,0.0302 0.009,0.0606 0.0136,0.0909 0.005,0.0304 0.009,0.0608 0.014,0.0912 0.005,0.0304 0.009,0.0607 0.0142,0.0913 0.005,0.0304 0.009,0.0608 0.0141,0.0913 0.005,0.0304 0.009,0.0608 0.0138,0.0911 0.005,0.0302 0.009,0.0605 0.0136,0.0908 0.004,0.0301 0.009,0.0603 0.0129,0.0903 0.004,0.0299 0.008,0.0599 0.012,0.0896 0.004,0.0297 0.008,0.0592 0.011,0.0888 0.004,0.0294 0.007,0.0588 0.01,0.0879 0.003,0.0291 0.006,0.0581 0.009,0.0868 0.003,0.0286 0.005,0.0572 0.007,0.0855 0.002,0.0283 0.004,0.0563 0.005,0.0842 0.002,0.0278 0.003,0.0554 0.004,0.0827 8.7e-4,0.0273 0.001,0.0543 0.001,0.0811 1.9e-4,0.0267 -5e-5,0.0532 -6.4e-4,0.0793 -5.9e-4,0.0261 -0.002,0.052 -0.003,0.0775 -0.001,0.0255 -0.003,0.0506 -0.005,0.0755 -0.002,0.0248 -0.005,0.0494 -0.008,0.0735 -0.003,0.024 -0.007,0.048 -0.0105,0.0714 -0.004,0.0235 -0.008,0.0464 -0.0131,0.0692 -0.005,0.0228 -0.0102,0.0451 -0.0159,0.0669 -0.006,0.0215 -0.012,0.0435 -0.0187,0.0647 -0.007,0.0209 -0.0141,0.0417 -0.0218,0.0622 -0.008,0.0203 -0.0164,0.04 -0.0244,0.0601 -0.009,0.0197 -0.0179,0.0387 -0.0272,0.0577 -0.0101,0.0184 -0.0202,0.0368 -0.0312,0.0546 -0.0109,0.0178 -0.0218,0.0355 -0.0335,0.0527 -0.0118,0.017 -0.0236,0.0341 -0.0365,0.0501 -0.0132,0.0159 -0.0256,0.0323 -0.0405,0.0471 -0.014,0.0152 -0.0273,0.0311 -0.0431,0.045 -0.0148,0.0146 -0.0304,0.0287 -0.0461,0.0425 -0.0156,0.014 -0.0323,0.027 -0.049,0.04 -0.0171,0.0127 -0.0342,0.0256 -0.052,0.0376 -0.0179,0.0121 -0.036,0.024 -0.0547,0.0354 -0.0187,0.0115 -0.0379,0.0225 -0.0575,0.0332 -0.0196,0.0107 -0.0397,0.021 -0.0602,0.0311 -0.0205,0.01 -0.0414,0.0196 -0.0629,0.0289 -0.0213,0.009 -0.0431,0.0182 -0.0653,0.0269 -0.0221,0.009 -0.0447,0.0169 -0.0677,0.0251 -0.0229,0.008 -0.0462,0.0157 -0.0698,0.0232 -0.0237,0.007 -0.0475,0.0146 -0.0719,0.0216 -0.0243,0.007 -0.0489,0.0135 -0.0739,0.02 -0.0249,0.006 -0.0501,0.0126 -0.0757,0.0185 -0.0255,0.006 -0.0512,0.0117 -0.0771,0.0173 -0.026,0.006 -0.0522,0.0108 -0.0786,0.0162 -0.0265,0.005 -0.0531,0.0101 -0.0798,0.0151 -0.0269,0.005 -0.0539,0.01 -0.081,0.0142 -0.0272,0.005 -0.0544,0.009 -0.0818,0.0135 -0.0274,0.004 -0.0549,0.009 -0.0827,0.0129 -0.0276,0.004 -0.0553,0.008 -0.0831,0.0125 -0.0278,0.004 -0.0556,0.008 -0.0836,0.0122 -0.0279,0.004 -0.0557,0.008 -0.0836,0.0121 -0.0279,0.004 -0.0557,0.008 -0.0836,0.0121 -0.0279,0.004 -0.0556,0.008 -0.0834,0.0123 -0.0277,0.004 -0.0553,0.008 -0.0829,0.0126 -0.0276,0.004 -0.0549,0.009 -0.0823,0.0132 -0.0273,0.004 -0.0545,0.009 -0.0814,0.0139 -0.027,0.005 -0.0539,0.01 -0.0804,0.0147 -0.0266,0.005 -0.0531,0.0102 -0.0792,0.0156 -0.0263,0.005 -0.0522,0.0109 -0.0779,0.0167 -0.0258,0.006 -0.0512,0.0116 -0.0764,0.0179 -0.0252,0.006 -0.0501,0.0126 -0.0748,0.0192 -0.0246,0.007 -0.0489,0.0135 -0.0729,0.0207 -0.024,0.007 -0.0475,0.0146 -0.071,0.0223 -0.0232,0.008 -0.0462,0.0157 -0.0687,0.0241 -0.0225,0.008 -0.0447,0.017 -0.0665,0.026 -0.0217,0.009 -0.0431,0.0182 -0.064,0.0279 -0.0209,0.01 -0.0414,0.0196 -0.0615,0.03 -0.0201,0.0103 -0.0398,0.0211 -0.0589,0.0321 -0.0195,0.0108 -0.038,0.0225 -0.0563,0.0343 -0.0187,0.0115 -0.036,0.024 -0.0534,0.0366 -0.0171,0.0127 -0.0342,0.0256 -0.0506,0.0389 -0.0163,0.0133 -0.0323,0.0271 -0.0476,0.0413 -0.0156,0.014 -0.0303,0.0286 -0.0446,0.0437 -0.0148,0.0146 -0.0273,0.0312 -0.0421,0.0458 -0.0132,0.0159 -0.0257,0.0324 -0.039,0.0483 -0.0125,0.0165 -0.0235,0.0341 -0.0353,0.0512 -0.011,0.0177 -0.0228,0.0348 -0.0319,0.0539 -0.0101,0.0184 -0.0203,0.0369 -0.0288,0.0565 -0.009,0.019 -0.0179,0.0386 -0.0259,0.0588 -0.009,0.0197 -0.0164,0.04 -0.0236,0.0608 -0.007,0.0209 -0.0142,0.0418 -0.0203,0.0634 -0.006,0.0215 -0.0121,0.0435 -0.0173,0.0658 -0.005,0.0222 -0.0101,0.045 -0.0145,0.068 -0.005,0.0228 -0.008,0.0465 -0.0118,0.0702 -0.003,0.024 -0.006,0.0479 -0.009,0.0725 -0.002,0.0247 -0.005,0.0494 -0.007,0.0745 -0.002,0.0252 -0.003,0.0507 -0.004,0.0766 -9.2e-4,0.0259 -0.002,0.0519 -0.002,0.0784 -1.8e-4,0.0264 -5e-5,0.0532 4.6e-4,0.0802 5.1e-4,0.027 0.001,0.0544 0.003,0.0819 10e-4,0.0276 0.003,0.0553 0.004,0.0834 0.002,0.0281 0.004,0.0563 0.006,0.0849 0.002,0.0285 0.005,0.0573 0.008,0.0861 0.003,0.0289 0.006,0.058 0.009,0.0874 0.003,0.0292 0.007,0.0588 0.0105,0.0883 0.004,0.0296 0.008,0.0593 0.0116,0.0892 0.004,0.0298 0.008,0.0598 0.0125,0.0899 0.004,0.03 0.009,0.0603 0.0132,0.0905 0.005,0.0302 0.009,0.0607 0.0137,0.091 0.005,0.0304 0.009,0.0607 0.014,0.0912 0.005,0.0304 0.009,0.0608 0.0142,0.0913 0.005,0.0304 0.009,0.0608 0.0141,0.0913 0.005,0.0304 0.009,0.0606 0.0138,0.0911 0.005,0.0302 0.009,0.0606 0.0134,0.0907 0.004,0.0301 0.009,0.0603 0.0128,0.0903 0.004,0.0299 0.008,0.0598 0.0119,0.0895 0.004,0.0297 0.007,0.0593 0.011,0.0888 0.003,0.0294 0.007,0.0587 0.01,0.0877 0.003,0.0291 0.006,0.058 0.008,0.0867 0.003,0.0286 0.005,0.0572 0.007,0.0854 0.002,0.0283 0.004,0.0563 0.005,0.0841 0.001,0.0277 0.003,0.0552 0.003,0.0825 7.9e-4,0.0273 0.001,0.0543 0.001,0.0808 1e-4,0.0267 -2.1e-4,0.0531 -8.8e-4,0.0791 -6.8e-4,0.026 -0.002,0.0518 -0.003,0.0773 -0.001,0.0255 -0.003,0.0506 -0.006,0.0753 -0.002,0.0247 -0.005,0.0492 -0.008,0.0733 -0.003,0.024 -0.007,0.0478 -0.0107,0.0712 -0.004,0.0235 -0.009,0.0463 -0.0135,0.069 -0.005,0.0222 -0.0103,0.0449 -0.0162,0.0668 -0.006,0.0215 -0.0122,0.0432 -0.0192,0.0644 -0.007,0.0209 -0.0142,0.0418 -0.0221,0.0619 -0.008,0.0202 -0.0164,0.04 -0.0251,0.0595 -0.009,0.0191 -0.0186,0.038 -0.0272,0.0577 -0.0101,0.0184 -0.0203,0.0369 -0.0312,0.0546 -0.0109,0.0178 -0.0218,0.0355 -0.0346,0.0518 -0.0118,0.017 -0.0241,0.0336 -0.0366,0.0501 -0.0132,0.0159 -0.0257,0.0324 -0.0405,0.0471 -0.014,0.0153 -0.0289,0.0299 -0.0434,0.0447 -0.0148,0.0146 -0.0303,0.0286 -0.0464,0.0422 -0.0163,0.0133 -0.0325,0.027 -0.0494,0.0398 -0.0171,0.0127 -0.0344,0.0255 -0.0524,0.0374 -0.0179,0.012 -0.0362,0.0239 -0.0551,0.0352 -0.0187,0.0115 -0.0381,0.0224 -0.0578,0.033 -0.0197,0.0106 -0.0399,0.021 -0.0604,0.0308 -0.0206,0.01 -0.0416,0.0195 -0.0631,0.0288 -0.0214,0.009 -0.0433,0.0181 -0.0655,0.0268 -0.0222,0.009 -0.0448,0.0168 -0.0678,0.0248 -0.023,0.008 -0.0463,0.0156 -0.07,0.0231 -0.0237,0.007 -0.0477,0.0145 -0.0722,0.0214 -0.0244,0.007 -0.0491,0.0134 -0.0741,0.0198 -0.025,0.006 -0.0502,0.0125 -0.0758,0.0184 -0.0255,0.006 -0.0513,0.0115 -0.0773,0.0172 -0.0261,0.005 -0.0521,0.0108 -0.0788,0.016 -0.0265,0.005 -0.0532,0.01 -0.08,0.015 -0.0269,0.005 -0.054,0.009 -0.0811,0.0141 -0.0272,0.005 -0.0545,0.009 -0.0819,0.0135 -0.0275,0.004 -0.0549,0.009 -0.0826,0.013 -0.0276,0.004 -0.0554,0.008 -0.0832,0.0124 -0.0278,0.004 -0.0556,0.008 -0.0836,0.0122 -0.0279,0.004 -0.0557,0.008 -0.0837,0.012 -0.0279,0.004 -0.0557,0.008 -0.0836,0.0121 -0.0278,0.004 -0.0555,0.008 -0.0833,0.0123 -0.0277,0.004 -0.0553,0.008 -0.0829,0.0126 -0.0276,0.004 -0.0549,0.009 -0.0822,0.0132 -0.0272,0.004 -0.0544,0.009 -0.0814,0.0139 -0.0269,0.005 -0.0538,0.01 -0.0803,0.0147 -0.0266,0.005 -0.053,0.0103 -0.0791,0.0157 -0.0262,0.005 -0.0521,0.0108 -0.0778,0.0168 -0.0257,0.006 -0.0511,0.0118 -0.0762,0.0181 -0.0252,0.006 -0.05,0.0127 -0.0745,0.0194 -0.0246,0.007 -0.0487,0.0136 -0.0728,0.0209 -0.0239,0.007 -0.0475,0.0146 -0.0707,0.0225 -0.0231,0.008 -0.0461,0.0158 -0.0685,0.0244 -0.0224,0.008 -0.0445,0.0171 -0.0662,0.0262 -0.0216,0.009 -0.0429,0.0183 -0.0638,0.0282 -0.0208,0.01 -0.0413,0.0196 -0.0613,0.0301 -0.02,0.0104 -0.0394,0.0212 -0.0586,0.0324 -0.0195,0.0108 -0.0377,0.0226 -0.0559,0.0345 -0.0179,0.0121 -0.0359,0.0241 -0.0531,0.0368 -0.0171,0.0127 -0.034,0.0257 -0.0502,0.0391 -0.0163,0.0133 -0.0319,0.0274 -0.0472,0.0415 -0.0156,0.014 -0.0304,0.0287 -0.0443,0.044 -0.014,0.0153 -0.0272,0.0311 -0.0413,0.0464 -0.0132,0.0159 -0.0257,0.0324 -0.0373,0.0495 -0.0125,0.0165 -0.0236,0.0341 -0.0353,0.0512 -0.011,0.0177 -0.021,0.0362 -0.0319,0.0539 -0.0101,0.0184 -0.0203,0.0369 -0.0288,0.0565 -0.009,0.019 -0.0179,0.0387 -0.0259,0.0588 -0.009,0.0197 -0.0164,0.04 -0.0228,0.0614 -0.007,0.0209 -0.0142,0.0418 -0.0201,0.0636 -0.006,0.0215 -0.0119,0.0436 -0.017,0.0661 -0.005,0.0222 -0.01,0.0453 -0.0142,0.0683 -0.005,0.0228 -0.008,0.0467 -0.0115,0.0706 -0.003,0.024 -0.006,0.0481 -0.009,0.0727 -0.002,0.0246 -0.005,0.0495 -0.006,0.0747 -0.002,0.0252 -0.003,0.0508 -0.004,0.0767 -8.4e-4,0.0259 -0.001,0.0522 -0.002,0.0785 -1e-4,0.0264 1.1e-4,0.0533 5.7e-4,0.0804 5.9e-4,0.027 0.001,0.0545 0.003,0.0821 0.001,0.0276 0.003,0.0555 0.005,0.0836 0.002,0.0281 0.004,0.0565 0.006,0.085 0.002,0.0285 0.005,0.0574 0.008,0.0863 0.003,0.029 0.006,0.0582 0.009,0.0874 0.003,0.0293 0.007,0.0588 0.0106,0.0884 0.004,0.0297 0.008,0.0594 0.0116,0.0893 0.004,0.0299 0.008,0.0599 0.0125,0.09 0.004,0.03 0.009,0.0602 0.0132,0.0905 0.004,0.0302 0.009,0.0606 0.0137,0.091 0.005,0.0304 0.009,0.0608 0.014,0.0912 0.005,0.0304 0.01,0.0608 0.0142,0.0913 0.005,0.0304 0.009,0.0609 0.0142,0.0913 0.005,0.0304 0.009,0.0607 0.0138,0.091 0.005,0.0302 0.009,0.0605 0.0133,0.0906 0.004,0.03 0.009,0.0603 0.0127,0.0901 0.004,0.0299 0.008,0.0598 0.0118,0.0895 0.004,0.0297 0.007,0.0592 0.0108,0.0886 0.003,0.0293 0.007,0.0587 0.01,0.0876 0.003,0.029 0.006,0.0579 0.008,0.0865 0.003,0.0286 0.005,0.057 0.007,0.0853 0.002,0.0282 0.004,0.0562 0.005,0.0838 0.001,0.0277 0.002,0.0552 0.003,0.0823 7.6e-4,0.0271 0.001,0.054 0.001,0.0807 2e-5,0.0266 -3e-4,0.053 -0.001,0.0789 -7.6e-4,0.026 -0.002,0.0517 -0.003,0.0771 -0.001,0.0254 -0.003,0.0504 -0.006,0.0752 -0.002,0.0247 -0.005,0.0491 -0.008,0.0731 -0.003,0.024 -0.007,0.0477 -0.011,0.0709 -0.004,0.0235 -0.009,0.0461 -0.0137,0.0687 -0.005,0.0222 -0.0105,0.0447 -0.0165,0.0665 -0.006,0.0215 -0.0125,0.0432 -0.0194,0.0641 -0.007,0.0209 -0.0141,0.0417 -0.0224,0.0617 -0.008,0.0203 -0.0164,0.04 -0.0251,0.0595 -0.009,0.019 -0.0187,0.0382 -0.028,0.0571 -0.0101,0.0184 -0.021,0.0361 -0.0311,0.0546 -0.011,0.0177 -0.0228,0.0348 -0.0346,0.0518 -0.0118,0.017 -0.0241,0.0337 -0.0373,0.0495 -0.0132,0.0159 -0.0256,0.0323 -0.0413,0.0464 -0.014,0.0153 -0.0289,0.03 -0.0437,0.0444 -0.0148,0.0146 -0.0312,0.028 -0.0467,0.042 -0.0163,0.0133 -0.0326,0.0267 -0.0496,0.0396 -0.0171,0.0127 -0.0345,0.0253 -0.0526,0.0373 -0.0179,0.012 -0.0365,0.0237 -0.0554,0.035 -0.0187,0.0115 -0.0382,0.0221 -0.0581,0.0328 -0.0197,0.0105 -0.04,0.0208 -0.0607,0.0307 -0.0207,0.01 -0.0418,0.0195 -0.0633,0.0285 -0.0215,0.009 -0.0435,0.018 -0.0658,0.0266 -0.0223,0.009 -0.045,0.0168 -0.0681,0.0247 -0.0231,0.008 -0.0465,0.0155 -0.0703,0.0229 -0.0237,0.007 -0.0479,0.0143 -0.0724,0.0211 -0.0245,0.007 -0.0491,0.0134 -0.0743,0.0197 -0.0251,0.006 -0.0503,0.0123 -0.0759,0.0184 -0.0256,0.006 -0.0514,0.0115 -0.0775,0.017 -0.0261,0.005 -0.0522,0.0108 -0.0788,0.0159 -0.0265,0.005 -0.0532,0.01 -0.0801,0.0149 -0.0269,0.005 -0.054,0.009 -0.0811,0.0141 -0.0272,0.004 -0.0546,0.009 -0.082,0.0133 -0.0275,0.004 -0.055,0.008 -0.0827,0.0127 -0.0277,0.004 -0.0554,0.008 -0.0832,0.0124 -0.0278,0.004 -0.0556,0.008 -0.0836,0.0122 -0.0279,0.004 -0.0558,0.008 -0.0837,0.012 -0.0279,0.004 -0.0557,0.008 -0.0836,0.0121 -0.0278,0.004 -0.0555,0.008 -0.0833,0.0124 -0.0277,0.004 -0.0552,0.008 -0.0828,0.0127 -0.0275,0.004 -0.0548,0.009 -0.0821,0.0133 -0.0272,0.004 -0.0543,0.009 -0.0813,0.014 -0.0269,0.005 -0.0537,0.01 -0.0802,0.0149 -0.0265,0.005 -0.0528,0.0104 -0.079,0.0158 -0.0262,0.005 -0.052,0.0111 -0.0776,0.017 -0.0256,0.006 -0.051,0.0118 -0.0761,0.0182 -0.0251,0.006 -0.0498,0.0128 -0.0744,0.0195 -0.0245,0.007 -0.0487,0.0137 -0.0725,0.021 -0.0239,0.007 -0.0473,0.0148 -0.0704,0.0228 -0.0231,0.008 -0.0459,0.0159 -0.0683,0.0245 -0.0224,0.008 -0.0444,0.0172 -0.066,0.0263 -0.0216,0.009 -0.0428,0.0184 -0.0636,0.0283 -0.0208,0.01 -0.0412,0.0198 -0.0611,0.0304 -0.0198,0.0105 -0.0393,0.0213 -0.0583,0.0325 -0.0187,0.0115 -0.0375,0.0227 -0.0556,0.0347 -0.0179,0.0121 -0.0356,0.0242 -0.0529,0.037 -0.0171,0.0127 -0.0338,0.0258 -0.05,0.0394 -0.0163,0.0133 -0.0318,0.0273 -0.0471,0.0418 -0.0156,0.014 -0.0303,0.0286 -0.044,0.0442 -0.014,0.0153 -0.0273,0.0312 -0.0413,0.0464 -0.0132,0.0159 -0.0249,0.033 -0.0373,0.0495 -0.0118,0.017 -0.0236,0.0341 -0.0346,0.0518 -0.011,0.0177 -0.0218,0.0356 -0.0311,0.0546 -0.0101,0.0184 -0.0195,0.0375 -0.028,0.0571 -0.009,0.0191 -0.0179,0.0387 -0.0259,0.0588 -0.008,0.0203 -0.0156,0.0407 -0.0227,0.0615 -0.007,0.0209 -0.0134,0.0424 -0.0197,0.0639 -0.006,0.0215 -0.0116,0.0439 -0.0168,0.0662 -0.005,0.0222 -0.01,0.0453 -0.014,0.0685 -0.005,0.0228 -0.008,0.0468 -0.0113,0.0707 -0.003,0.024 -0.006,0.0482 -0.009,0.0729 -0.002,0.0247 -0.005,0.0496 -0.006,0.075 -0.002,0.0253 -0.003,0.0509 -0.004,0.0769 -7.6e-4,0.026 -10e-4,0.0522 -10e-4,0.0788 -6e-5,0.0266 2.3e-4,0.0535 9e-4,0.0806 6.8e-4,0.0271 0.002,0.0546 0.003,0.0822 0.001,0.0277 0.003,0.0556 0.005,0.0837 0.002,0.0282 0.004,0.0566 0.007,0.0851 0.002,0.0285 0.005,0.0575 0.008,0.0864 0.003,0.029 0.006,0.0582 0.009,0.0875 0.003,0.0293 0.007,0.0589 0.0108,0.0885 0.004,0.0297 0.008,0.0595 0.0116,0.0893 0.004,0.0299 0.008,0.06 0.0126,0.0901 0.004,0.03 0.009,0.0604 0.0133,0.0906 0.005,0.0302 0.009,0.0607 0.0137,0.091 0.005,0.0304 0.009,0.0608 0.014,0.0912 0.005,0.0304 0.009,0.0608 0.0143,0.0914 0.005,0.0304 0.009,0.0608 0.014,0.0912 0.005,0.0304 0.009,0.0608 0.0138,0.0911 0.005,0.0302 0.009,0.0605 0.0133,0.0906 0.004,0.03 0.008,0.0602 0.0126,0.0901 0.004,0.0299 0.008,0.0597 0.0118,0.0895 0.004,0.0297 0.007,0.0592 0.0107,0.0884 0.003,0.0293 0.007,0.0585 0.009,0.0875 0.003,0.029 0.006,0.0578 0.008,0.0864 0.002,0.0285 0.005,0.057 0.007,0.0851 0.002,0.0282 0.004,0.0561 0.005,0.0837 0.001,0.0277 0.002,0.0551 0.003,0.0822 6.8e-4,0.0271 9.7e-4,0.054 9e-4,0.0806 -7e-5,0.0266 -4.6e-4,0.0529 -0.001,0.0788 -7.6e-4,0.026 -0.002,0.0516 -0.004,0.0769 -0.002,0.0253 -0.004,0.0504 -0.006,0.075 -0.002,0.0247 -0.005,0.049 -0.009,0.0729 -0.003,0.024 -0.007,0.0476 -0.0113,0.0707 -0.005,0.0228 -0.009,0.0461 -0.014,0.0685 -0.005,0.0222 -0.0108,0.0446 -0.0168,0.0662 -0.006,0.0216 -0.0126,0.0431 -0.0198,0.0639 -0.007,0.0209 -0.015,0.0412 -0.0226,0.0615 -0.008,0.0203 -0.0171,0.0394 -0.0259,0.0588 -0.009,0.019 -0.0187,0.0382 -0.028,0.0571 -0.0101,0.0184 -0.021,0.0362 -0.0311,0.0546 -0.011,0.0177 -0.0227,0.0347 -0.0346,0.0518 -0.0118,0.017 -0.0241,0.0337 -0.0373,0.0495 -0.0132,0.0159 -0.0264,0.0317 -0.0413,0.0464 -0.014,0.0153 -0.0288,0.0299 -0.044,0.0442 -0.0156,0.014 -0.0312,0.028 -0.047,0.0418 -0.0163,0.0133 -0.0328,0.0267 -0.0499,0.0394 -0.0171,0.0127 -0.0347,0.025 -0.0529,0.037 -0.0179,0.012 -0.0366,0.0236 -0.0556,0.0347 -0.0187,0.0115 -0.0385,0.0221 -0.0583,0.0325 -0.0198,0.0105 -0.0401,0.0206 -0.061,0.0304 -0.0207,0.01 -0.042,0.0192 -0.0636,0.0283 -0.0216,0.009 -0.0436,0.018 -0.066,0.0263 -0.0224,0.008 -0.0452,0.0166 -0.0683,0.0245 -0.0231,0.008 -0.0467,0.0154 -0.0704,0.0228 -0.0239,0.007 -0.048,0.0144 -0.0725,0.021 -0.0245,0.007 -0.0493,0.0132 -0.0744,0.0195 -0.0252,0.006 -0.0504,0.0122 -0.0762,0.0182 -0.0256,0.006 -0.0514,0.0114 -0.0776,0.017 -0.0262,0.005 -0.0525,0.0106 -0.079,0.0158 -0.0265,0.005 -0.0532,0.01 -0.0802,0.0148 -0.0269,0.005 -0.054,0.009 -0.0813,0.014 -0.0272,0.004 -0.0547,0.009 -0.082,0.0133 -0.0275,0.004 -0.055,0.008 -0.0828,0.0127 -0.0277,0.004 -0.0554,0.008 -0.0833,0.0124 -0.0278,0.004 -0.0556,0.008 -0.0836,0.0121 -0.0279,0.004 -0.0557,0.008 -0.0836,0.0121 -0.0279,0.004 -0.0557,0.008 -0.0836,0.0122 -0.0278,0.004 -0.0555,0.008 -0.0832,0.0124 -0.0277,0.004 -0.0552,0.008 -0.0828,0.0128 -0.0275,0.004 -0.0548,0.009 -0.082,0.0134 -0.0272,0.004 -0.0543,0.009 -0.0812,0.014 -0.0269,0.005 -0.0536,0.01 -0.0801,0.0149 -0.0265,0.005 -0.0528,0.0104 -0.0788,0.0159 -0.0261,0.005 -0.0519,0.0111 -0.0774,0.0171 -0.0256,0.006 -0.0509,0.012 -0.076,0.0183 -0.0251,0.006 -0.0497,0.0128 -0.0743,0.0197 -0.0245,0.007 -0.0485,0.0138 -0.0724,0.0211 -0.0237,0.007 -0.0472,0.0149 -0.0703,0.0229 -0.023,0.008 -0.0457,0.016 -0.0681,0.0247 -0.0223,0.009 -0.0442,0.0173 -0.0658,0.0266 -0.0215,0.009 -0.0427,0.0186 -0.0633,0.0285 -0.0207,0.01 -0.0408,0.02 -0.0607,0.0307 -0.0197,0.0105 -0.0391,0.0214 -0.0581,0.0328 -0.0187,0.0115 -0.0373,0.0228 -0.0554,0.035 -0.0179,0.0121 -0.0355,0.0244 -0.0526,0.0373 -0.0171,0.0127 -0.0335,0.0259 -0.0496,0.0396 -0.0163,0.0133 -0.0316,0.0275 -0.0467,0.042 -0.0148,0.0146 -0.0296,0.0292 -0.0437,0.0444 -0.014,0.0153 -0.0272,0.031 -0.0413,0.0464 -0.0132,0.0159 -0.0248,0.0329 -0.0373,0.0495 -0.0118,0.017 -0.0235,0.0341 -0.0346,0.0518 -0.011,0.0177 -0.0218,0.0356 -0.0311,0.0546 -0.0101,0.0184 -0.0195,0.0375 -0.028,0.0571 -0.009,0.019 -0.0179,0.0387 -0.0251,0.0595 -0.008,0.0203 -0.0156,0.0407 -0.0224,0.0617 -0.007,0.0209 -0.0134,0.0424 -0.0194,0.0641 -0.006,0.0215 -0.0115,0.0439 -0.0165,0.0665 -0.005,0.0222 -0.01,0.0455 -0.0137,0.0687 -0.004,0.0235 -0.008,0.047 -0.0109,0.071 -0.003,0.024 -0.006,0.0484 -0.008,0.0731 -0.002,0.0247 -0.004,0.0498 -0.006,0.0752 -0.001,0.0254 -0.003,0.0511 -0.003,0.0771 -6.7e-4,0.026 -10e-4,0.0523 -10e-4,0.0789 1e-5,0.0266 3.8e-4,0.0536 10e-4,0.0807 7.6e-4,0.0271 0.002,0.0547 0.003,0.0824 0.001,0.0277 0.003,0.0557 0.005,0.0838 0.002,0.0282 0.004,0.0567 0.007,0.0852 0.003,0.0286 0.005,0.0575 0.008,0.0865 0.003,0.029 0.006,0.0583 0.01,0.0876 0.003,0.0294 0.007,0.059 0.0109,0.0887 0.004,0.0297 0.008,0.0596 0.0118,0.0894 0.004,0.0299 0.008,0.06 0.0126,0.0902 0.004,0.0301 0.009,0.0604 0.0133,0.0906 0.005,0.0302 0.009,0.0607 0.0137,0.091 0.005,0.0304 0.009,0.0609 0.0142,0.0913 0.005,0.0304 0.009,0.0609 0.0142,0.0913 0.005,0.0304 0.009,0.0608 0.014,0.0912 0.005,0.0304 0.009,0.0608 0.0137,0.091 0.005,0.0302 0.009,0.0605 0.0133,0.0906 0.004,0.0301 0.008,0.0601 0.0125,0.09 0.004,0.0298 0.008,0.0597 0.0116,0.0893 0.004,0.0296 0.007,0.0591 0.0106,0.0884 0.003,0.0293 0.006,0.0584 0.009,0.0874 0.003,0.029 0.006,0.0577 0.008,0.0862 0.002,0.0285 0.005,0.0569 0.006,0.085 0.002,0.0281 0.003,0.056 0.005,0.0836 0.001,0.0276 0.002,0.055 0.003,0.082 6e-4,0.027 8e-4,0.0539 5.7e-4,0.0804 -1.5e-4,0.0265 -6.3e-4,0.0528 -0.002,0.0785 -8.4e-4,0.0259 -0.002,0.0514 -0.004,0.0767 -0.002,0.0252 -0.004,0.0502 -0.006,0.0747 -0.002,0.0247 -0.006,0.0488 -0.009,0.0726 -0.003,0.024 -0.007,0.0474 -0.0115,0.0706 -0.005,0.0228 -0.009,0.046 -0.0142,0.0683 -0.005,0.0222 -0.0109,0.0445 -0.017,0.0661 -0.006,0.0215 -0.0126,0.0431 -0.0199,0.0637 -0.007,0.0209 -0.015,0.0412 -0.0228,0.0613 -0.009,0.0197 -0.0171,0.0394 -0.0259,0.0588 -0.009,0.0191 -0.0187,0.0382 -0.0288,0.0565 -0.0101,0.0184 -0.0211,0.0362 -0.0319,0.0539 -0.011,0.0177 -0.0228,0.0348 -0.0353,0.0512 -0.0124,0.0165 -0.0241,0.0337 -0.0373,0.0495 -0.0132,0.0159 -0.0264,0.0317 -0.0413,0.0464 -0.014,0.0153 -0.0296,0.0293 -0.0443,0.044 -0.0156,0.014 -0.0312,0.028 -0.0473,0.0415 -0.0163,0.0133 -0.0331,0.0264 -0.0503,0.0391 -0.0171,0.0127 -0.0349,0.025 -0.0531,0.0368 -0.0179,0.0121 -0.0369,0.0234 -0.0559,0.0345 -0.0195,0.0108 -0.0387,0.022 -0.0586,0.0323 -0.02,0.0104 -0.0404,0.0205 -0.0612,0.0302 -0.0208,0.01 -0.0421,0.0191 -0.0638,0.0282 -0.0216,0.009 -0.0438,0.0179 -0.0662,0.0262 -0.0224,0.008 -0.0454,0.0165 -0.0685,0.0244 -0.0231,0.008 -0.0468,0.0153 -0.0707,0.0225 -0.0239,0.007 -0.0482,0.0143 -0.0728,0.0209 -0.0246,0.007 -0.0494,0.0132 -0.0746,0.0194 -0.0252,0.006 -0.0506,0.0123 -0.0763,0.018 -0.0257,0.006 -0.0517,0.0114 -0.0779,0.0168 -0.0262,0.005 -0.0526,0.0106 -0.0791,0.0157 -0.0266,0.005 -0.0534,0.01 -0.0803,0.0147 -0.027,0.005 -0.0541,0.009 -0.0813,0.0139 -0.0272,0.004 -0.0547,0.009 -0.0822,0.0132 -0.0276,0.004 -0.0551,0.008 -0.0829,0.0126 -0.0277,0.004 -0.0555,0.008 -0.0833,0.0124 -0.0279,0.004 -0.0557,0.008 -0.0836,0.0121 -0.0279,0.004 -0.0558,0.008 -0.0837,0.012 -0.0279,0.004 -0.0557,0.008 -0.0836,0.0122 -0.0278,0.004 -0.0555,0.008 -0.0832,0.0124 -0.0276,0.004 -0.0552,0.008 -0.0826,0.0128 -0.0275,0.004 -0.0548,0.009 -0.082,0.0134 -0.0272,0.005 -0.0543,0.009 -0.081,0.0142 -0.0269,0.005 -0.0535,0.01 -0.0799,0.015 -0.0265,0.005 -0.0527,0.0104 -0.0788,0.016 -0.0261,0.005 -0.0518,0.0112 -0.0773,0.0172 -0.0255,0.006 -0.0508,0.012 -0.0758,0.0184 -0.025,0.006 -0.0496,0.0129 -0.0741,0.0198 -0.0244,0.007 -0.0484,0.014 -0.0721,0.0214 -0.0237,0.007 -0.047,0.0151 -0.07,0.0231 -0.0231,0.008 -0.0456,0.0161 -0.0678,0.0248 -0.0222,0.009 -0.044,0.0174 -0.0655,0.0268 -0.0214,0.009 -0.0425,0.0187 -0.0631,0.0287 -0.0206,0.01 -0.0407,0.0202 -0.0604,0.0308 -0.0197,0.0106 -0.039,0.0215 -0.0578,0.033 -0.0187,0.0115 -0.0371,0.0231 -0.0551,0.0352 -0.0179,0.0121 -0.0353,0.0246 -0.0523,0.0374 -0.0171,0.0127 -0.0334,0.0261 -0.0494,0.0398 -0.0163,0.0133 -0.0314,0.0278 -0.0464,0.0422 -0.0148,0.0146 -0.0296,0.0292 -0.0434,0.0447 -0.014,0.0152 -0.0264,0.0316 -0.0405,0.0471 -0.0132,0.0159 -0.0248,0.0329 -0.0365,0.0501 -0.0118,0.017 -0.0235,0.0341 -0.0346,0.0518 -0.0109,0.0178 -0.0209,0.0361 -0.0312,0.0546 -0.0101,0.0184 -0.0195,0.0374 -0.0272,0.0577 -0.009,0.019 -0.0171,0.0393 -0.0251,0.0595 -0.008,0.0203 -0.0149,0.0411 -0.0221,0.0619 -0.007,0.0209 -0.0134,0.0424 -0.0191,0.0644 -0.006,0.0215 -0.0113,0.0441 -0.0162,0.0668 -0.005,0.0222 -0.009,0.0456 -0.0135,0.069 -0.004,0.0235 -0.008,0.0471 -0.0107,0.0712 -0.003,0.024 -0.006,0.0485 -0.008,0.0732 -0.002,0.0247 -0.004,0.0499 -0.006,0.0753 -0.001,0.0255 -0.003,0.0512 -0.003,0.0773 -5.9e-4,0.0261 -9e-4,0.0525 -8.9e-4,0.0791 1e-4,0.0267 5.6e-4,0.0537 10e-4,0.0808 7.9e-4,0.0273 0.002,0.0548 0.003,0.0826 0.001,0.0277 0.003,0.0558 0.005,0.0841 0.002,0.0283 0.004,0.0568 0.007,0.0854 0.003,0.0286 0.005,0.0576 0.008,0.0866 0.003,0.0291 0.006,0.0583 0.01,0.0877 0.003,0.0294 0.007,0.059 0.0109,0.0888 0.004,0.0297 0.008,0.0596 0.0119,0.0895 0.004,0.0299 0.008,0.06 0.0128,0.0903 0.004,0.0301 0.009,0.0604 0.0134,0.0907 0.005,0.0303 0.009,0.0607 0.0138,0.0911 0.005,0.0304 0.009,0.0608 0.0141,0.0913 0.005,0.0304 0.009,0.0608 0.0142,0.0913 0.005,0.0304 0.009,0.0608 0.014,0.0912 0.005,0.0304 0.009,0.0607 0.0137,0.091 0.005,0.0302 0.009,0.0604 0.0132,0.0905 0.004,0.0301 0.008,0.0601 0.0125,0.09 0.004,0.0298 0.008,0.0596 0.0116,0.0892 0.004,0.0296 0.007,0.0591 0.0105,0.0883 0.003,0.0292 0.006,0.0584 0.009,0.0873 0.003,0.0289 0.005,0.0577 0.008,0.0861 0.002,0.0285 0.004,0.0568 0.006,0.0849 0.002,0.0281 0.003,0.056 0.004,0.0834 0.001,0.0276 0.002,0.055 0.003,0.0819 5.1e-4,0.027 6.4e-4,0.0538 4.1e-4,0.0802 -1.8e-4,0.0264 -8.2e-4,0.0526 -0.002,0.0784 -9.2e-4,0.0259 -0.002,0.0513 -0.004,0.0766 -0.002,0.0252 -0.004,0.05 -0.007,0.0745 -0.002,0.0246 -0.006,0.0487 -0.009,0.0725 -0.003,0.024 -0.007,0.0472 -0.0118,0.0703 -0.005,0.0228 -0.009,0.0457 -0.0145,0.068 -0.005,0.0222 -0.0111,0.0442 -0.0173,0.0658 -0.006,0.0215 -0.0134,0.0424 -0.0203,0.0634 -0.007,0.0209 -0.0149,0.0411 -0.0236,0.0608 -0.009,0.0197 -0.0171,0.0394 -0.0259,0.0588 -0.009,0.019 -0.0195,0.0375 -0.0288,0.0565 -0.0101,0.0184 -0.0211,0.0362 -0.0319,0.0539 -0.011,0.0177 -0.0228,0.0348 -0.0354,0.0512 -0.0124,0.0165 -0.0249,0.033 -0.039,0.0483 -0.0132,0.0159 -0.0264,0.0317 -0.0421,0.0458 -0.0148,0.0146 -0.0296,0.0293 -0.0446,0.0437 -0.0156,0.014 -0.0313,0.028 -0.0476,0.0413 -0.0163,0.0133 -0.0332,0.0264 -0.0505,0.0389 -0.0171,0.0127 -0.0352,0.0248 -0.0534,0.0366 -0.0187,0.0115 -0.037,0.0233 -0.0562,0.0343 -0.0195,0.0108 -0.0388,0.0218 -0.0589,0.0321 -0.0201,0.0103 -0.0406,0.0204 -0.0615,0.03 -0.0209,0.01 -0.0423,0.019 -0.0641,0.0279 -0.0217,0.009 -0.044,0.0176 -0.0665,0.026 -0.0225,0.008 -0.0455,0.0164 -0.0687,0.0241 -0.0232,0.008 -0.0469,0.0152 -0.0709,0.0224 -0.024,0.007 -0.0483,0.0141 -0.0729,0.0208 -0.0246,0.007 -0.0495,0.0131 -0.0748,0.0192 -0.0252,0.006 -0.0507,0.0121 -0.0763,0.0179 -0.0258,0.006 -0.0517,0.0113 -0.0779,0.0167 -0.0263,0.005 -0.0527,0.0106 -0.0792,0.0156 -0.0266,0.005 -0.0535,0.01 -0.0804,0.0147 -0.027,0.005 -0.0541,0.009 -0.0815,0.0138 -0.0273,0.004 -0.0548,0.009 -0.0823,0.0132 -0.0276,0.004 -0.0551,0.008 -0.0829,0.0126 -0.0277,0.004 -0.0554,0.008 -0.0834,0.0123 -0.0279,0.004 -0.0557,0.008 -0.0836,0.0121 -0.0279,0.004 -0.0557,0.008 -0.0836,0.0121 -0.0279,0.004 -0.0557,0.008 -0.0836,0.0122 -0.0278,0.004 -0.0554,0.008 -0.0831,0.0125 -0.0276,0.004 -0.0551,0.008 -0.0827,0.0129 -0.0275,0.004 -0.0548,0.009 -0.0818,0.0135 -0.0272,0.005 -0.0541,0.009 -0.0809,0.0142 -0.0269,0.005 -0.0534,0.01 -0.0798,0.0151 -0.0265,0.005 -0.0527,0.0104 -0.0786,0.0161 -0.026,0.006 -0.0517,0.0113 -0.0772,0.0172 -0.0254,0.006 -0.0507,0.0121 -0.0756,0.0186 -0.0249,0.006 -0.0495,0.013 -0.0739,0.02 -0.0243,0.007 -0.0483,0.0141 -0.072,0.0215 -0.0237,0.007 -0.0469,0.0152 -0.0698,0.0232 -0.0229,0.008 -0.0455,0.0163 -0.0676,0.0251 -0.0221,0.009 -0.0439,0.0175 -0.0653,0.0269 -0.0213,0.009 -0.0423,0.0189 -0.0629,0.0289 -0.0205,0.01 -0.0406,0.0203 -0.0602,0.0311 -0.0196,0.0107 -0.0388,0.0217 -0.0575,0.0332 -0.0187,0.0115 -0.037,0.0232 -0.0548,0.0354 -0.0179,0.0121 -0.0351,0.0247 -0.052,0.0376 -0.0171,0.0127 -0.0332,0.0263 -0.049,0.04 -0.0156,0.014 -0.0312,0.0279 -0.0461,0.0425 -0.0148,0.0146 -0.0296,0.0292 -0.0431,0.045 -0.014,0.0153 -0.0264,0.0316 -0.0405,0.0471 -0.0132,0.0159 -0.0248,0.0329 -0.0366,0.0501 -0.0118,0.017 -0.0228,0.0347 -0.0335,0.0527 -0.0109,0.0178 -0.021,0.0362 -0.0312,0.0546 -0.0101,0.0184 -0.0195,0.0375 -0.0272,0.0577 -0.009,0.0197 -0.0171,0.0393 -0.0244,0.0601 -0.008,0.0203 -0.0149,0.041 -0.0218,0.0622 -0.007,0.0209 -0.0134,0.0424 -0.0188,0.0646 -0.006,0.0215 -0.0111,0.0441 -0.0159,0.0669 -0.005,0.0228 -0.009,0.0457 -0.0131,0.0692 -0.004,0.0235 -0.007,0.0472 -0.0105,0.0714 -0.003,0.024 -0.006,0.0486 -0.008,0.0736 -0.002,0.0247 -0.004,0.05 -0.005,0.0755 -10e-4,0.0255 -0.002,0.0513 -0.003,0.0775 -5.9e-4,0.0261 -7.7e-4,0.0525 -6.4e-4,0.0793 1.8e-4,0.0267 6.3e-4,0.0538 0.002,0.0811 8.7e-4,0.0273 0.002,0.055 0.003,0.0827 0.002,0.0278 0.003,0.0559 0.005,0.0842 0.002,0.0283 0.004,0.0568 0.007,0.0855 0.003,0.0287 0.005,0.0577 0.009,0.0868 0.003,0.0291 0.006,0.0583 0.01,0.0878 0.003,0.0294 0.007,0.0591 0.0111,0.0889 0.004,0.0297 0.008,0.0597 0.012,0.0896 0.004,0.0299 0.009,0.06 0.0129,0.0903 0.004,0.0301 0.009,0.0604 0.0136,0.0908 0.005,0.0303 0.009,0.0607 0.0138,0.0911 0.005,0.0304 0.009,0.0608 0.0142,0.0913 0.005,0.0304 0.009,0.0609 0.0141,0.0913 0.005,0.0304 0.009,0.0608 0.014,0.0912 0.005,0.0304 0.009,0.0606 0.0137,0.091 0.005,0.0302 0.009,0.0604 0.0131,0.0904 0.004,0.03 0.008,0.06 0.0125,0.0899 0.004,0.0298 0.008,0.0596 0.0114,0.0891 0.004,0.0296 0.007,0.059 0.0103,0.0882 0.003,0.0292 0.006,0.0583 0.009,0.0872 0.003,0.0289 0.005,0.0576 0.008,0.086 0.002,0.0284 0.004,0.0568 0.006,0.0847 0.002,0.028 0.003,0.0558 0.004,0.0833 0.001,0.0275 0.002,0.0548 0.002,0.0817 4.3e-4,0.0269 4.7e-4,0.0537 2.1e-4,0.08 -2.6e-4,0.0263 -9e-4,0.0525 -0.002,0.0782 -10e-4,0.0258 -0.003,0.0512 -0.004,0.0763 -0.002,0.0251 -0.004,0.0499 -0.007,0.0744 -0.002,0.0246 -0.006,0.0485 -0.009,0.0722 -0.004,0.0235 -0.008,0.0471 -0.012,0.0701 -0.005,0.0228 -0.009,0.0456 -0.0148,0.0679 -0.005,0.0222 -0.0113,0.0441 -0.0176,0.0655 -0.006,0.0215 -0.0134,0.0424 -0.0206,0.0632 -0.008,0.0203 -0.0149,0.0411 -0.0236,0.0608 -0.009,0.0197 -0.0171,0.0394 -0.0267,0.0583 -0.009,0.019 -0.0195,0.0375 -0.0288,0.0565 -0.0101,0.0184 -0.021,0.0362 -0.0319,0.0539 -0.0118,0.017 -0.0236,0.0341 -0.0353,0.0512 -0.0124,0.0165 -0.0249,0.033 -0.039,0.0483 -0.0132,0.0159 -0.0264,0.0317 -0.0421,0.0458 -0.0148,0.0146 -0.0296,0.0293 -0.0449,0.0434 -0.0156,0.014 -0.0315,0.0278 -0.0479,0.041 -0.0163,0.0133 -0.0335,0.0262 -0.0509,0.0387 -0.0171,0.0127 -0.0353,0.0247 -0.0538,0.0363 -0.0187,0.0115 -0.0371,0.0231 -0.0565,0.034 -0.0195,0.0108 -0.0391,0.0217 -0.0591,0.0319 -0.0202,0.0102 -0.0408,0.0203 -0.0618,0.0298 -0.021,0.01 -0.0426,0.0188 -0.0643,0.0277 -0.0218,0.009 -0.0441,0.0175 -0.0667,0.0258 -0.0225,0.008 -0.0457,0.0163 -0.0689,0.024 -0.0233,0.008 -0.0471,0.0151 -0.071,0.0223 -0.0241,0.007 -0.0484,0.014 -0.0732,0.0206 -0.0247,0.007 -0.0496,0.013 -0.075,0.0191 -0.0253,0.006 -0.0508,0.0121 -0.0765,0.0178 -0.0258,0.006 -0.0518,0.0113 -0.0781,0.0165 -0.0263,0.005 -0.0528,0.0105 -0.0794,0.0155 -0.0267,0.005 -0.0536,0.01 -0.0806,0.0146 -0.027,0.005 -0.0542,0.009 -0.0815,0.0138 -0.0273,0.004 -0.0549,0.009 -0.0824,0.0131 -0.0276,0.004 -0.0553,0.008 -0.083,0.0126 -0.0277,0.004 -0.0557,0.008 -0.0834,0.0123 -0.0279,0.004 -0.0557,0.008 -0.0836,0.0121 -0.0279,0.004 -0.0558,0.008 -0.0836,0.0121 -0.0279,0.004 -0.0557,0.008 -0.0835,0.0122 -0.0278,0.004 -0.0554,0.008 -0.0831,0.0125 -0.0276,0.004 -0.0551,0.008 -0.0825,0.013 -0.0274,0.004 -0.0547,0.009 -0.0818,0.0135 -0.0272,0.005 -0.0541,0.009 -0.0808,0.0143 -0.0268,0.005 -0.0534,0.01 -0.0798,0.0151 -0.0264,0.005 -0.0526,0.0105 -0.0785,0.0163 -0.0259,0.006 -0.0515,0.0114 -0.0769,0.0174 -0.0254,0.006 -0.0505,0.0122 -0.0755,0.0187 -0.0249,0.006 -0.0493,0.0131 -0.0737,0.0201 -0.0243,0.007 -0.0481,0.0142 -0.0717,0.0217 -0.0236,0.007 -0.0468,0.0152 -0.0696,0.0234 -0.0229,0.008 -0.0453,0.0164 -0.0674,0.0252 -0.022,0.009 -0.0438,0.0177 -0.065,0.0271 -0.0213,0.009 -0.0421,0.019 -0.0626,0.0292 -0.0204,0.0101 -0.0404,0.0204 -0.06,0.0312 -0.0196,0.0108 -0.0386,0.0219 -0.0573,0.0335 -0.0187,0.0115 -0.0368,0.0233 -0.0545,0.0357 -0.0179,0.012 -0.035,0.0248 -0.0517,0.038 -0.0171,0.0127 -0.033,0.0264 -0.0488,0.0403 -0.0156,0.014 -0.0311,0.0279 -0.0458,0.0427 -0.0148,0.0146 -0.0288,0.0299 -0.0428,0.0451 -0.014,0.0153 -0.0264,0.0316 -0.0397,0.0477 -0.0124,0.0165 -0.0241,0.0336 -0.0358,0.0508 -0.0118,0.017 -0.0228,0.0347 -0.0335,0.0527 -0.0109,0.0178 -0.021,0.0362 -0.0311,0.0546 -0.0101,0.0184 -0.0187,0.0381 -0.0272,0.0577 -0.009,0.0197 -0.0171,0.0393 -0.0244,0.0601 -0.008,0.0203 -0.0149,0.0411 -0.0215,0.0625 -0.007,0.0209 -0.0126,0.043 -0.0185,0.0648 -0.005,0.0222 -0.0109,0.0444 -0.0156,0.0672 -0.005,0.0228 -0.009,0.046 -0.0129,0.0694 -0.004,0.0235 -0.007,0.0473 -0.0102,0.0715 -0.003,0.024 -0.006,0.0488 -0.008,0.0737 -0.002,0.0248 -0.004,0.0501 -0.005,0.0757 -10e-4,0.0256 -0.002,0.0515 -0.003,0.0777 -5.1e-4,0.0262 -6.3e-4,0.0528 -5.3e-4,0.0795 2.6e-4,0.0268 8.6e-4,0.0538 0.002,0.0813 9.5e-4,0.0274 0.002,0.055 0.004,0.0829 0.002,0.0278 0.003,0.056 0.005,0.0843 0.002,0.0283 0.005,0.0568 0.007,0.0857 0.003,0.0287 0.006,0.0577 0.009,0.0869 0.003,0.0291 0.006,0.0584 0.01,0.0879 0.004,0.0294 0.007,0.0591 0.0111,0.0889 0.004,0.0298 0.008,0.0597 0.0122,0.0897 0.004,0.0299 0.008,0.0601 0.013,0.0904 0.004,0.0301 0.009,0.0604 0.0135,0.0907 0.005,0.0303 0.009,0.0608 0.0139,0.0911 0.005,0.0304 0.009,0.0608 0.0141,0.0913 0.005,0.0304 0.009,0.0608 0.0141,0.0913 0.005,0.0304 0.009,0.0608 0.014,0.0912 0.005,0.0304 0.009,0.0607 0.0136,0.0909 0.005,0.0302 0.009,0.0603 0.0131,0.0904 0.004,0.03 0.008,0.06 0.0124,0.0899 0.004,0.0298 0.008,0.0596 0.0114,0.0891 0.004,0.0295 0.007,0.0589 0.0103,0.0882 0.003,0.0292 0.006,0.0583 0.009,0.087 0.003,0.0289 0.005,0.0575 0.008,0.0859 0.002,0.0284 0.004,0.0566 0.006,0.0846 0.002,0.0279 0.003,0.0558 0.004,0.0831 0.001,0.0274 0.002,0.0547 0.002,0.0816 4.2e-4,0.0269 4.4e-4,0.0535 -4e-5,0.0798 -3.4e-4,0.0263 -10e-4,0.0523 -0.002,0.0781 -0.001,0.0258 -0.003,0.051 -0.005,0.0761 -0.002,0.0251 -0.004,0.0497 -0.007,0.0742 -0.003,0.0241 -0.006,0.0484 -0.01,0.0721 -0.004,0.0235 -0.008,0.047 -0.0124,0.0699 -0.005,0.0228 -0.01,0.0454 -0.0151,0.0676 -0.005,0.0222 -0.0116,0.0439 -0.0179,0.0654 -0.006,0.0215 -0.0134,0.0424 -0.0209,0.0629 -0.008,0.0202 -0.0155,0.0406 -0.0235,0.0607 -0.009,0.0197 -0.0179,0.0387 -0.0267,0.0582 -0.009,0.0191 -0.0195,0.0375 -0.0304,0.0553 -0.0109,0.0178 -0.0209,0.0361 -0.0327,0.0533 -0.0118,0.017 -0.0236,0.0342 -0.0358,0.0508 -0.0124,0.0165 -0.0249,0.033 -0.0397,0.0477 -0.014,0.0153 -0.0272,0.0311 -0.0421,0.0458 -0.0148,0.0146 -0.0296,0.0293 -0.0452,0.0433 -0.0156,0.014 -0.0316,0.0276 -0.0482,0.0408 -0.0163,0.0133 -0.0335,0.0259 -0.0511,0.0384 -0.0179,0.012 -0.0355,0.0245 -0.0541,0.036 -0.0187,0.0115 -0.0374,0.0229 -0.0567,0.0339 -0.0195,0.0108 -0.0392,0.0215 -0.0594,0.0316 -0.0202,0.0102 -0.0409,0.0201 -0.062,0.0296 -0.0211,0.009 -0.0427,0.0187 -0.0646,0.0275 -0.0219,0.009 -0.0443,0.0174 -0.0669,0.0256 -0.0226,0.008 -0.0458,0.0161 -0.0692,0.0238 -0.0234,0.008 -0.0472,0.015 -0.0713,0.0221 -0.0241,0.007 -0.0485,0.0139 -0.0733,0.0205 -0.0247,0.006 -0.0498,0.0129 -0.0751,0.0191 -0.0253,0.006 -0.0509,0.012 -0.0767,0.0177 -0.0259,0.006 -0.0519,0.0112 -0.0781,0.0165 -0.0263,0.005 -0.0529,0.0105 -0.0795,0.0154 -0.0267,0.005 -0.0537,0.01 -0.0807,0.0145 -0.0271,0.005 -0.0544,0.009 -0.0817,0.0137 -0.0274,0.004 -0.0549,0.009 -0.0824,0.0131 -0.0276,0.004 -0.0553,0.008 -0.0831,0.0125 -0.0277,0.004 -0.0556,0.008 -0.0835,0.0122 -0.0279,0.004 -0.0558,0.008 -0.0836,0.0121 -0.0279,0.004 -0.0558,0.008 -0.0836,0.0121 -0.0279,0.004 -0.0557,0.008 -0.0835,0.0122 -0.0278,0.004 -0.0555,0.008 -0.0831,0.0125 -0.0276,0.004 -0.055,0.008 -0.0825,0.013 -0.0274,0.004 -0.0546,0.009 -0.0817,0.0137 -0.0271,0.005 -0.0541,0.009 -0.0807,0.0144 -0.0268,0.005 -0.0533,0.01 -0.0796,0.0153 -0.0264,0.005 -0.0526,0.0106 -0.0783,0.0164 -0.0259,0.006 -0.0514,0.0114 -0.0769,0.0175 -0.0254,0.006 -0.0504,0.0122 -0.0753,0.0189 -0.0248,0.006 -0.0493,0.0132 -0.0735,0.0202 -0.0242,0.007 -0.048,0.0143 -0.0715,0.0219 -0.0235,0.008 -0.0466,0.0153 -0.0694,0.0236 -0.0227,0.008 -0.0452,0.0166 -0.0671,0.0254 -0.022,0.009 -0.0436,0.0179 -0.0648,0.0274 -0.0212,0.009 -0.0419,0.0191 -0.0623,0.0293 -0.0203,0.0101 -0.0401,0.0206 -0.0597,0.0315 -0.0195,0.0108 -0.0384,0.022 -0.057,0.0336 -0.0187,0.0115 -0.0366,0.0235 -0.0542,0.0359 -0.0179,0.012 -0.0347,0.025 -0.0515,0.0381 -0.0163,0.0133 -0.0327,0.0266 -0.0484,0.0406 -0.0156,0.014 -0.0311,0.0279 -0.0455,0.043 -0.0148,0.0146 -0.0288,0.0299 -0.0428,0.0451 -0.014,0.0153 -0.0264,0.0316 -0.0397,0.0477 -0.0124,0.0165 -0.0241,0.0336 -0.0358,0.0508 -0.0118,0.017 -0.0228,0.0347 -0.0326,0.0533 -0.0109,0.0178 -0.021,0.0361 -0.0304,0.0553 -0.009,0.0191 -0.0187,0.0381 -0.0267,0.0582 -0.009,0.0197 -0.0171,0.0393 -0.0244,0.0601 -0.008,0.0203 -0.0149,0.0411 -0.0211,0.0627 -0.007,0.0209 -0.0126,0.043 -0.0182,0.0651 -0.005,0.0222 -0.0106,0.0446 -0.0154,0.0673 -0.005,0.0228 -0.009,0.046 -0.0126,0.0697 -0.004,0.0235 -0.007,0.0475 -0.01,0.0717 -0.003,0.024 -0.005,0.0489 -0.007,0.0739 -0.002,0.0249 -0.004,0.0502 -0.005,0.0759 -0.001,0.0256 -0.002,0.0515 -0.002,0.0778 -4.2e-4,0.0262 -4.9e-4,0.0528 -2.8e-4,0.0797 3.5e-4,0.0269 9.7e-4,0.054 0.002,0.0813 9.6e-4,0.0274 0.002,0.055 0.004,0.083 0.002,0.0278 0.004,0.0561 0.006,0.0844 0.002,0.0284 0.005,0.057 0.007,0.0858 0.003,0.0288 0.006,0.0577 0.009,0.0869 0.003,0.0291 0.007,0.0585 0.0101,0.088 0.004,0.0296 0.007,0.0592 0.0113,0.089 0.004,0.0298 0.008,0.0597 0.0123,0.0898 0.004,0.03 0.009,0.0603 0.013,0.0904 0.004,0.0301 0.009,0.0605 0.0135,0.0909 0.005,0.0304 0.009,0.0606 0.0139,0.0911 0.005,0.0304 0.009,0.0608 0.0141,0.0913"
       style="fill:none;fill-opacity:1;stroke:#151515;stroke-width:0.26499999;stroke-miterlimit:4;stroke-dasharray:none;stroke-dashoffset:0;stroke-opacity:1"
       inkscape:connector-curvature="0" />
    <rect
       style="fill:none;fill-opacity:1;stroke:#151515;stroke-width:0.26499999;stroke-miterlimit:4;stroke-dasharray:none;stroke-dashoffset:0;stroke-opacity:1"
       id="rect961-7"
       width="4.2763124"
       height="4.2763124"
       x="137.12305"
       y="176.45496" />
    <text
       xml:space="preserve"
       style="font-style:normal;font-variant:normal;font-weight:normal;font-stretch:normal;font-size:1.92387116px;line-height:1.25;font-family:'Goblin One';-inkscape-font-specification:'Goblin One';letter-spacing:0px;word-spacing:0px;fill:#000000;fill-opacity:1;stroke:none;stroke-width:0.04809678"
       x="203.1346"
       y="98.758316"
       id="text4714"
       transform="scale(0.82866765,1.2067564)"><tspan
         sodipodi:role="line"
         id="tspan4712"
         x="203.1346"
         y="98.758316"
         style="stroke-width:0.04809678">RITA EJEMPLO</tspan></text>
    <text
       xml:space="preserve"
       style="font-style:normal;font-variant:normal;font-weight:normal;font-stretch:normal;font-size:1.92387116px;line-height:1.25;font-family:'Goblin One';-inkscape-font-specification:'Goblin One';letter-spacing:0px;word-spacing:0px;fill:#000000;fill-opacity:1;stroke:none;stroke-width:0.04809678"
       x="121.77106"
       y="98.697754"
       id="text4714-5"
       transform="scale(0.82866765,1.2067564)"><tspan
         sodipodi:role="line"
         id="tspan4712-3"
         x="121.77106"
         y="98.697754"
         style="stroke-width:0.04809678">JORGE EJEMPLO</tspan></text>
    <text
       xml:space="preserve"
       style="font-style:normal;font-variant:normal;font-weight:normal;font-stretch:normal;font-size:1.92387116px;line-height:1.25;font-family:'Goblin One';-inkscape-font-specification:'Goblin One';text-align:center;letter-spacing:0px;word-spacing:0px;text-anchor:middle;fill:#000000;fill-opacity:1;stroke:none;stroke-width:0.04809678"
       x="168.50273"
       y="152.33611"
       id="text4714-5-5"
       transform="scale(0.82866765,1.2067564)"><tspan
         sodipodi:role="line"
         x="168.50273"
         y="152.33611"
         style="text-align:center;text-anchor:middle;stroke-width:0.04809678"
         id="tspan4790">NORTH</tspan><tspan
         sodipodi:role="line"
         x="168.50273"
         y="154.74095"
         style="text-align:center;text-anchor:middle;stroke-width:0.04809678"
         id="tspan4794">HACKERSPACE</tspan><tspan
         sodipodi:role="line"
         x="168.50273"
         y="157.14578"
         style="text-align:center;text-anchor:middle;stroke-width:0.04809678"
         id="tspan4788">INFRASTRUCTURE</tspan></text>
    <text
       xml:space="preserve"
       style="font-style:normal;font-variant:normal;font-weight:normal;font-stretch:normal;font-size:1.92387116px;line-height:1.25;font-family:'Goblin One';-inkscape-font-specification:'Goblin One';letter-spacing:0px;word-spacing:0px;fill:#000000;fill-opacity:1;stroke:none;stroke-width:0.04809678"
       x="170.95671"
       y="105.58853"
       id="text4714-5-2"
       transform="scale(0.82866765,1.2067564)"><tspan
         sodipodi:role="line"
         id="tspan4712-3-9"
         x="171.24379"
         y="105.58853"
         style="text-align:center;letter-spacing:0.57414585px;word-spacing:3.42635489px;text-anchor:middle;stroke-width:0.04809678"
         dx="0">Microwave Link 300Mb/s</tspan></text>
    <text
       xml:space="preserve"
       style="font-style:normal;font-variant:normal;font-weight:normal;font-stretch:normal;font-size:1.92387116px;line-height:1.25;font-family:'Goblin One';-inkscape-font-specification:'Goblin One';letter-spacing:0px;word-spacing:0px;fill:#000000;fill-opacity:1;stroke:none;stroke-width:0.04809678"
       x="216.81859"
       y="127.06031"
       id="text4714-5-2-1"
       transform="scale(0.82866765,1.2067564)"><tspan
         sodipodi:role="line"
         id="tspan4712-3-9-1"
         x="217.10567"
         y="127.06031"
         style="text-align:center;letter-spacing:0.57414585px;word-spacing:1.28058362px;text-anchor:middle;stroke-width:0.04809678"
         dx="0">Microwave Link 1Gb/s</tspan></text>
  </g>
</svg>
